<?xml version="1.0" encoding="utf-8"?>
<!-- Generator: Adobe Illustrator 20.0.0, SVG Export Plug-In . SVG Version: 6.00 Build 0)  -->
<svg version="1.1" id="Layer_1" xmlns="http://www.w3.org/2000/svg" xmlns:xlink="http://www.w3.org/1999/xlink" x="0px" y="0px"
	 viewBox="0 0 187.1 124.5" style="enable-background:new 0 0 187.1 124.5;" xml:space="preserve">
<style type="text/css">
	.st0{fill:#1E71B8;}
</style>
<g>
	<path class="st0" d="M178.4,86.5c0.8,0.4,1.6,0.6,2.4,0.6c0,0,0,0,0,0c0.8,0,1.6-0.2,2.4-0.6c0.8-0.4,1.4-1,1.8-1.8
		c0.4-0.8,0.6-1.6,0.6-2.4c0-0.9-0.2-1.7-0.6-2.5c-0.4-0.8-1-1.4-1.8-1.8c-0.8-0.4-1.6-0.6-2.4-0.6c0,0,0,0,0,0
		c-0.8,0-1.6,0.2-2.4,0.6c-0.8,0.4-1.4,1-1.8,1.8c-0.4,0.8-0.6,1.6-0.6,2.5c0,0.8,0.2,1.6,0.6,2.4C177,85.5,177.6,86.1,178.4,86.5
		L178.4,86.5L178.4,86.5L178.4,86.5z M177.3,80.2c0.4-0.6,0.9-1.2,1.5-1.5c0.6-0.3,1.3-0.5,2-0.5c0,0,0,0,0,0c0.7,0,1.4,0.2,2,0.5
		c0.6,0.4,1.2,0.9,1.5,1.5c0.4,0.6,0.5,1.3,0.5,2.1c0,0.7-0.2,1.4-0.5,2c-0.3,0.6-0.8,1.1-1.5,1.5c-0.6,0.4-1.3,0.5-2,0.5
		c0,0,0,0,0,0c-0.7,0-1.4-0.2-2-0.5c-0.6-0.4-1.2-0.9-1.5-1.5c-0.4-0.6-0.6-1.3-0.6-2C176.7,81.6,176.9,80.9,177.3,80.2L177.3,80.2
		L177.3,80.2L177.3,80.2z"/>
	<path class="st0" d="M179.5,82.7h0.5l0,0c0.3,0,0.5,0.1,0.7,0.2c0.1,0,0.1,0.1,0.1,0.1c0.2,0.2,0.5,0.6,0.8,1.1l0,0L182,85h1
		l-0.6-1l0,0c-0.3-0.5-0.6-0.8-0.8-1c-0.1-0.1-0.3-0.2-0.5-0.3c0.5,0,0.8-0.2,1.1-0.5s0.4-0.6,0.4-1c0-0.3-0.1-0.5-0.3-0.8
		c-0.2-0.3-0.4-0.4-0.7-0.5c-0.2-0.1-0.6-0.1-1-0.1c-0.1,0-0.2,0-0.3,0l0,0h-1.8V85h0.8L179.5,82.7L179.5,82.7L179.5,82.7z
		 M179.5,80.4h1l0,0c0.1,0,0.2,0,0.3,0c0.3,0,0.4,0.1,0.5,0.1c0.2,0.1,0.3,0.1,0.4,0.3c0.1,0.1,0.1,0.3,0.1,0.4
		c0,0.2-0.1,0.4-0.3,0.6c-0.1,0.1-0.4,0.2-0.8,0.2c-0.1,0-0.2,0-0.3,0l0,0h-1L179.5,80.4L179.5,80.4L179.5,80.4z"/>
	<polygon class="st0" points="53.1,81 60.7,81 53.1,68.3 46.6,57.7 19.4,74.1 23.5,81 53.1,81 	"/>
	<polygon class="st0" points="123.8,81 137.8,81 160.9,81 137.8,42.5 112.2,0 101.7,6.3 85,16.4 101.7,44.2 123.8,81 	"/>
	<path class="st0" d="M110.8,93.7c-2.6-1.7-5.7-2.7-9-2.7c0,0-0.1,0-0.1,0c-9.2,0.1-16.6,7.5-16.6,16.7c0,9.2,7.5,16.7,16.6,16.7
		c0,0,0.1,0,0.1,0c3.3,0,6.4-1,9-2.7l0,0v1.7h7.7v-15.8V81h-7.7V93.7L110.8,93.7L110.8,93.7z M110.8,109.5c-0.8,4.2-4.6,7.5-9,7.5
		c0,0-0.1,0-0.1,0c-5-0.1-9.1-4.2-9.1-9.2c0-5,4.1-9.1,9.1-9.2c0,0,0.1,0,0.1,0c4.4,0,8.2,3.2,9,7.4l0,0V109.5L110.8,109.5
		L110.8,109.5z"/>
	<path class="st0" d="M146.9,93.7c-2.6-1.7-5.7-2.7-9-2.7c0,0-0.1,0-0.1,0c-9.2,0.1-16.6,7.5-16.6,16.7c0,9.2,7.5,16.7,16.6,16.7
		c0,0,0.1,0,0.1,0c3.3,0,6.4-1,9-2.7l0,0v1.7h7.7v-15.8V91.9h-7.7V93.7L146.9,93.7L146.9,93.7z M146.9,109.5c-0.8,4.2-4.6,7.5-9,7.5
		c0,0-0.1,0-0.1,0c-5-0.1-9.1-4.2-9.1-9.2c0-5,4.1-9.1,9.1-9.2c0,0,0.1,0,0.1,0c4.4,0,8.2,3.2,9,7.4l0,0V109.5L146.9,109.5
		L146.9,109.5z"/>
	<path class="st0" d="M181.9,105.7c-0.3-0.1-0.7-0.3-1.1-0.5c-1.7-0.6-4.5-1.3-8.4-2.2c-3.4-0.8-5.1-1.7-5.1-3
		c0-0.9,0.3-1.6,0.9-2.1c0.8-0.7,2.2-1,4.2-1c2.1,0,3.5,0.5,4.4,1.3c0.5,0.5,0.9,1.5,1.2,2.8l0,0h2.8h5.4l0,0c0-4-1.6-6.9-4.8-8.6
		c-0.2-0.1-0.3-0.2-0.5-0.3c-2.2-1-5.2-1.6-8.9-1.6c-4.5,0-7.9,1.2-10.1,3.6c-1.8,1.9-2.7,4.3-2.7,7c0,3.4,1.7,5.9,5.1,7.5
		c1.3,0.6,4.4,1.5,9.5,2.6c3.4,0.7,5,1.8,5,3.1c0,0.8-0.3,1.5-1.1,2.1c-0.9,0.8-2.3,1.2-4.2,1.2c-2.5,0-4.3-0.4-5.3-1.2
		c-1-0.8-1.6-1.9-1.6-3.4l0,0H158l0,0c0,3.9,1.6,6.8,4.9,8.7c2.6,1.5,6.1,2.3,10.3,2.3c2.8,0,5.4-0.5,7.5-1.4
		c0.5-0.2,0.8-0.4,1.3-0.6c3.4-1.9,5-4.8,5-8.9C187.1,109.8,185.4,107.3,181.9,105.7L181.9,105.7L181.9,105.7L181.9,105.7z"/>
	<path class="st0" d="M25.7,93.7C23.1,92,20,91,16.7,91c0,0-0.1,0-0.1,0C7.5,91.1,0,98.6,0,107.8c0,9.2,7.5,16.7,16.6,16.7
		c0,0,0.1,0,0.1,0c3.3,0,6.4-1,9-2.7l0,0v1.7h7.7v-15.8V91.9h-7.7L25.7,93.7L25.7,93.7L25.7,93.7z M25.7,109.5
		c-0.8,4.2-4.6,7.5-9,7.5c0,0-0.1,0-0.1,0c-5-0.1-9.1-4.2-9.1-9.2c0-5,4.1-9.1,9.1-9.2c0,0,0.1,0,0.1,0c4.5,0,8.2,3.2,9,7.4l0,0
		V109.5L25.7,109.5L25.7,109.5z"/>
	<polygon class="st0" points="73.7,88.5 82.1,88.5 82.1,81.2 73.7,81.2 73.7,88.5 	"/>
	<polygon class="st0" points="73.7,123.6 82.1,123.6 82.1,91 73.7,91 73.7,123.6 	"/>
	<path class="st0" d="M62.2,93.7c-2.6-1.7-5.7-2.7-9-2.7c0,0-0.1,0-0.1,0c-9.2,0.1-16.6,7.5-16.6,16.7c0,9.2,7.5,16.7,16.6,16.7
		c0,0,0.1,0,0.1,0c3.3,0,6.4-1,9-2.7l0,0v1.7h7.7v-15.8V81h-7.7L62.2,93.7L62.2,93.7L62.2,93.7z M62.2,109.5c-0.8,4.2-4.6,7.5-9,7.5
		c0,0-0.1,0-0.1,0c-5-0.1-9.1-4.2-9.1-9.2c0-5,4.1-9.1,9.1-9.2c0,0,0.1,0,0.1,0c4.5,0,8.2,3.2,9,7.4l0,0L62.2,109.5L62.2,109.5
		L62.2,109.5z"/>
	<polygon class="st0" points="110.8,81 101.7,65.9 79.4,28.8 53.1,44.7 52.2,45.2 53.1,46.7 73.7,81 101.7,81 110.8,81 	"/>
</g>
</svg>
