<?xml version="1.0" encoding="utf-8"?>
<!-- Generator: Adobe Illustrator 20.0.0, SVG Export Plug-In . SVG Version: 6.00 Build 0)  -->
<svg version="1.1" id="Layer_1" xmlns="http://www.w3.org/2000/svg" xmlns:xlink="http://www.w3.org/1999/xlink" x="0px" y="0px"
	 viewBox="0 0 175.7 42" style="enable-background:new 0 0 175.7 42;" xml:space="preserve">
<style type="text/css">
	.st0{fill:#CC2131;}
</style>
<g>
	<path d="M68.4,30.4L66,41.5h-5.5l9.1-40.4h6.5l8.6,40.4h-5.6l-2.3-11.2H68.4L68.4,30.4z M76.2,25.9l-1.9-9.7
		c-0.5-2.8-1.1-6.4-1.5-9.2h-0.2c-0.4,2.9-1,6.7-1.6,9.2l-1.9,9.7H76.2L76.2,25.9z"/>
	<path d="M105.8,0v34c0,2.2,0.1,5.5,0.2,7.5h-4.9l-0.4-3.5h-0.2c-1,2-3.2,4-6.1,4c-5.4,0-8.7-5.9-8.7-14.9c0-10.3,4.4-15.2,9-15.2
		c2.3,0,4.2,1.1,5.2,3.3h0.1V0H105.8L105.8,0z M100.2,23.5c0-0.5,0-1.2-0.1-1.8c-0.3-2.6-1.8-4.9-3.8-4.9c-3.5,0-4.7,4.9-4.7,10.3
		c0,6,1.6,10.2,4.6,10.2c1.3,0,2.9-0.7,3.9-4.1c0.1-0.5,0.2-1.2,0.2-1.9L100.2,23.5L100.2,23.5z"/>
	<path d="M119.3,42c-5.8,0-10-5-10-15c0-10.6,5-15.1,10.3-15.1c5.8,0,9.9,5.2,9.9,15C129.5,38.5,123.8,42,119.3,42L119.3,42
		L119.3,42z M119.4,37.6c3.5,0,4.3-6.2,4.3-10.6c0-4.4-0.8-10.6-4.4-10.6c-3.7,0-4.4,6.2-4.4,10.6C114.9,31.8,115.7,37.6,119.4,37.6
		L119.4,37.6L119.4,37.6z"/>
	<path d="M132.9,0h5.6v15.7h0.1c1.5-2.6,3.5-3.8,6.1-3.8c5,0,8.1,5.6,8.1,14.6c0,10.4-4.3,15.5-9.1,15.5c-2.9,0-4.5-1.6-5.8-4.1
		h-0.2l-0.3,3.7h-4.9c0.1-2,0.2-5.3,0.2-7.5L132.9,0L132.9,0z M138.5,31.2c0,0.7,0.1,1.3,0.2,1.8c0.9,3.5,2.6,4.3,3.8,4.3
		c3.4,0,4.6-4.4,4.6-10.4c0-5.6-1.3-10.1-4.7-10.1c-1.9,0-3.4,2.2-3.8,4.3c-0.1,0.6-0.2,1.4-0.2,2L138.5,31.2L138.5,31.2z"/>
	<path d="M161.2,28.1c0.1,7.5,3.3,9.4,6.7,9.4c2,0,3.8-0.5,5-1.1l0.8,4.1c-1.7,0.9-4.4,1.4-7,1.4c-7.3,0-11.2-5.5-11.2-14.5
		c0-9.5,4.4-15.4,10.4-15.4S175,17.7,175,25c0,1.4-0.1,2.3-0.1,3.1L161.2,28.1L161.2,28.1z M169.6,24.1c0.1-5.2-1.7-7.9-4-7.9
		c-2.9,0-4.3,4.3-4.4,7.9H169.6L169.6,24.1z"/>
	<polygon class="st0" points="28.7,1.2 45.6,1.2 45.6,41.5 	"/>
	<polygon class="st0" points="16.9,1.2 0,1.2 0,41.5 	"/>
	<polygon class="st0" points="22.8,16.1 33.5,41.5 26.5,41.5 23.3,33.4 15.4,33.4 	"/>
	<path d="M174.5,11.8c0.7,0,1.3,0.6,1.3,1.3c0,0.7-0.6,1.3-1.3,1.3c-0.7,0-1.3-0.6-1.3-1.3C173.2,12.4,173.8,11.8,174.5,11.8
		L174.5,11.8L174.5,11.8z M174.5,12c-0.6,0-1,0.5-1,1.1c0,0.6,0.5,1.1,1,1.1c0.6,0,1-0.5,1-1.1S175,12,174.5,12L174.5,12L174.5,12z
		 M174.2,13.9H174v-1.4c0.1,0,0.2,0,0.4,0c0.2,0,0.4,0,0.4,0.1s0.1,0.2,0.1,0.3c0,0.2-0.1,0.3-0.3,0.4v0c0.1,0,0.2,0.1,0.2,0.4
		c0,0.2,0.1,0.3,0.1,0.4h-0.2c0,0-0.1-0.2-0.1-0.4c0-0.2-0.1-0.3-0.3-0.3h-0.2L174.2,13.9L174.2,13.9z M174.2,13.1h0.2
		c0.2,0,0.4-0.1,0.4-0.2c0-0.1-0.1-0.3-0.4-0.3c-0.1,0-0.1,0-0.2,0V13.1L174.2,13.1z"/>
	<path d="M47.8,1.2c0.7,0,1.3,0.6,1.3,1.3c0,0.7-0.6,1.3-1.3,1.3c-0.7,0-1.3-0.6-1.3-1.3C46.5,1.8,47.1,1.2,47.8,1.2L47.8,1.2
		L47.8,1.2z M47.8,1.4c-0.6,0-1,0.5-1,1.1c0,0.6,0.5,1.1,1,1.1c0.6,0,1-0.5,1-1.1S48.4,1.4,47.8,1.4L47.8,1.4L47.8,1.4z M47.5,3.2
		h-0.2V1.8c0.1,0,0.2,0,0.4,0c0.2,0,0.4,0,0.4,0.1c0.1,0.1,0.1,0.2,0.1,0.3c0,0.2-0.1,0.3-0.3,0.4v0c0.1,0,0.2,0.1,0.2,0.4
		c0,0.2,0.1,0.3,0.1,0.4h-0.2c0,0-0.1-0.2-0.1-0.4c0-0.2-0.1-0.3-0.3-0.3h-0.2V3.2L47.5,3.2z M47.5,2.4h0.2c0.2,0,0.4-0.1,0.4-0.2
		c0-0.1-0.1-0.3-0.4-0.3c-0.1,0-0.1,0-0.2,0V2.4L47.5,2.4z"/>
</g>
</svg>
