<?xml version="1.0" encoding="iso-8859-1"?><!-- Generator: Adobe Illustrator 16.0.0, SVG Export Plug-In . SVG Version: 6.00 Build 0) --><!DOCTYPE svg PUBLIC "-//W3C//DTD SVG 1.1//EN" "http://www.w3.org/Graphics/SVG/1.1/DTD/svg11.dtd"><svg version="1.1" id="svg1936" xmlns:svg="http://www.w3.org/2000/svg" xmlns="http://www.w3.org/2000/svg" xmlns:xlink="http://www.w3.org/1999/xlink" x="0px" y="0px" width="957.518px" height="181.5px" viewBox="7.082 7.081 957.518 181.5" style="enable-background:new 7.082 7.081 957.518 181.5;" xml:space="preserve"><path id="path8" style="fill:#FF9900;" d="M380.724,149.019c-34.999,25.798-85.729,39.562-129.406,39.562	c-61.243,0-116.377-22.652-158.088-60.325c-3.277-2.962-0.341-7,3.592-4.692c45.015,26.189,100.673,41.947,158.166,41.947	c38.774,0,81.43-8.023,120.65-24.671C381.563,138.323,386.518,144.719,380.724,149.019"/><path id="path10" style="fill:#FF9900;" d="M395.275,132.372c-4.457-5.715-29.573-2.701-40.847-1.363	c-3.434,0.42-3.958-2.569-0.865-4.719c20.004-14.079,52.827-10.016,56.655-5.297c3.827,4.746-0.996,37.648-19.794,53.352	c-2.884,2.412-5.637,1.127-4.352-2.07C390.294,161.735,399.758,138.113,395.275,132.372"/><path id="path12" style="fill:#221F1F;" d="M355.216,26.901V13.216c0-2.071,1.573-3.46,3.46-3.46h61.27	c1.966,0,3.539,1.416,3.539,3.46v11.719c-0.026,1.966-1.678,4.536-4.614,8.599l-31.749,45.329	c11.798-0.289,24.251,1.468,34.947,7.498c2.412,1.363,3.067,3.356,3.251,5.322v14.603c0,1.992-2.202,4.326-4.509,3.119	c-18.851-9.883-43.888-10.958-64.729,0.105c-2.124,1.154-4.353-1.153-4.353-3.146V92.496c0-2.229,0.026-6.03,2.255-9.412	l36.782-52.749h-32.011C356.788,30.335,355.216,28.946,355.216,26.901"/><path id="path14" style="fill:#221F1F;" d="M131.717,112.29h-18.641c-1.782-0.131-3.198-1.469-3.329-3.172V13.452	c0-1.914,1.6-3.434,3.592-3.434h17.382c1.809,0.078,3.251,1.468,3.382,3.198v12.505h0.341c4.535-12.086,13.056-17.723,24.539-17.723	c11.666,0,18.955,5.637,24.198,17.723c4.509-12.086,14.76-17.723,25.745-17.723c7.812,0,16.359,3.225,21.576,10.46	c5.898,8.049,4.692,19.741,4.692,29.992l-0.025,60.377c0,1.914-1.6,3.461-3.592,3.461h-18.614c-1.861-0.131-3.355-1.626-3.355-3.461	V58.125c0-4.037,0.366-14.104-0.524-17.932c-1.39-6.423-5.559-8.232-10.959-8.232c-4.509,0-9.229,3.015-11.143,7.839	c-1.913,4.824-1.729,12.898-1.729,18.325v50.704c0,1.914-1.6,3.461-3.592,3.461h-18.614c-1.888-0.131-3.355-1.626-3.355-3.461	l-0.026-50.704c0-10.67,1.757-26.374-11.483-26.374c-13.396,0-12.872,15.311-12.872,26.374v50.704	C135.308,110.743,133.709,112.29,131.717,112.29"/><path id="path16" style="fill:#221F1F;" d="M476.232,7.999c27.659,0,42.629,23.752,42.629,53.955	c0,29.179-16.543,52.329-42.629,52.329c-27.16,0-41.947-23.752-41.947-53.351C434.285,31.148,449.256,7.999,476.232,7.999 M476.389,27.53c-13.737,0-14.603,18.719-14.603,30.385c0,11.693-0.184,36.651,14.445,36.651c14.445,0,15.127-20.134,15.127-32.404	c0-8.075-0.341-17.723-2.778-25.378C486.483,30.125,482.314,27.53,476.389,27.53"/><path id="path18" style="fill:#221F1F;" d="M554.725,112.29h-18.562c-1.861-0.131-3.355-1.625-3.355-3.461l-0.026-95.691	c0.157-1.756,1.704-3.12,3.592-3.12h17.277c1.625,0.078,2.962,1.18,3.329,2.674V27.32h0.341	c5.217-13.082,12.531-19.322,25.404-19.322c8.363,0,16.517,3.015,21.76,11.273c4.876,7.655,4.876,20.528,4.876,29.782v60.22	c-0.209,1.678-1.756,3.016-3.592,3.016h-18.692c-1.704-0.131-3.119-1.39-3.303-3.016V57.312c0-10.46,1.205-25.771-11.667-25.771	c-4.535,0-8.704,3.041-10.775,7.655c-2.621,5.846-2.962,11.667-2.962,18.116v51.516C558.344,110.743,556.718,112.29,554.725,112.29"	/><path id="path20" style="fill:#221F1F;" d="M621.028,104.686c0-4.824,4.116-8.704,9.176-8.704s9.176,3.879,9.176,8.704	c0,4.798-4.116,8.73-9.176,8.73S621.028,109.484,621.028,104.686"/><path id="path22" style="fill:#221F1F;" d="M818.519,112.315c-1.94-0.078-3.461-1.572-3.461-3.46V13.189	c0.105-1.704,1.547-3.041,3.33-3.146h6.843c1.888,0,3.408,1.363,3.565,3.146v13.947c4.876-11.063,13.947-19.715,25.404-19.715h0.707	h0.682c12.165,0,21.053,8.966,24.355,21.996c5.165-12.873,14.865-21.996,27.659-21.996h0.655h0.761	c9.045,0,17.748,5.82,22.258,14.682c4.352,8.468,4.194,19.741,4.194,29.206l-0.026,57.546c0.026,1.835-1.468,3.329-3.329,3.46h-8.18	c-1.782-0.078-3.225-1.336-3.461-2.988V51.309c0-6.843,0.341-14.105-2.438-20.344c-2.832-6.371-8.259-10.356-14.079-10.645	c-6.501,0.315-12.479,5.06-16.359,11.457c-5.033,8.258-4.85,15.704-4.85,25.352v52.25c-0.236,1.572-1.625,2.805-3.33,2.936h-8.127	c-1.939-0.078-3.486-1.572-3.486-3.46l-0.053-61.374c0-5.637-0.341-12.27-2.937-17.33c-3.015-5.768-8.415-9.543-14.078-9.832	c-5.872,0.341-11.798,4.824-15.311,10.042c-4.535,6.659-5.4,14.891-5.4,23.359v55.134c0,1.835-1.495,3.329-3.356,3.46H818.519"/><path id="path24" style="fill:#221F1F;" d="M762.363,114.308c-26.453,0-38.303-26.977-38.303-53.955	c0-28.366,13.921-52.932,40.558-52.932h0.682h0.733c25.902,0,38.802,26.165,38.802,53.142c0,28.576-14.289,53.745-41.082,53.745	h-0.682H762.363 M764.303,101.225c8.703-0.287,15.572-5.688,19.636-14.681c3.645-8.075,4.353-17.33,4.353-26.191	c0-9.647-1.049-19.715-5.585-27.973c-4.063-7.21-11.037-11.798-18.43-12.06c-8.232,0.289-15.6,5.873-19.296,14.472	c-3.329,7.446-4.352,17.33-4.352,25.562c0,9.255,1.205,19.951,5.033,28C749.385,95.982,756.543,100.937,764.303,101.225"/><path id="path26" style="fill:#221F1F;" d="M679.701,100.806c11.877-0.366,18.116-9.883,20.686-22.206	c0.524-1.547,1.704-2.727,3.435-2.727l7.839-0.026c1.861,0.079,3.565,1.495,3.408,3.225c-3.618,21-16.281,35.235-34.318,35.235	h-0.734h-0.682c-26.269,0-37.595-26.375-37.595-53.142c0-26.558,11.483-53.745,37.752-53.745h0.708h0.708	c18.247,0,31.251,14.052,34.082,35.052c0,1.573-1.468,2.937-3.198,3.12l-8.206-0.105c-1.73-0.236-2.857-1.704-3.12-3.355	c-1.966-11.719-8.704-21.052-19.925-21.419C662.686,21.291,657.6,43.26,657.6,60.17C657.6,76.451,661.847,100.229,679.701,100.806"	/><path style="fill:#221F1F;" d="M339.564,94.75c-3.408-4.719-7.026-8.547-7.026-17.277V48.425c0-12.296,0.865-23.595-8.206-32.063	c-7.157-6.869-19.007-9.281-28.078-9.281c-17.723,0-37.543,6.606-41.685,28.524c-0.446,2.333,1.258,3.565,2.778,3.906l18.063,1.94	c1.704-0.079,2.937-1.73,3.251-3.408c1.547-7.55,7.865-11.194,14.97-11.194c3.854,0,8.206,1.416,10.461,4.85	c2.622,3.828,2.281,9.071,2.281,13.501v2.412c-10.802,1.232-24.933,2.019-35.053,6.476c-11.692,5.034-19.872,15.337-19.872,30.464	c0,19.375,12.19,29.048,27.895,29.048c13.239,0,20.502-3.119,30.727-13.555c3.382,4.903,4.509,7.289,10.696,12.428	c1.39,0.734,3.172,0.655,4.404-0.445l0.026,0.052c3.723-3.304,10.486-9.202,14.288-12.374	C341.006,98.447,340.744,96.428,339.564,94.75z M302.886,86.361c-2.963,5.244-7.682,8.468-12.898,8.468	c-7.157,0-11.353-5.453-11.353-13.502c0-15.887,14.236-18.771,27.738-18.771v4.037C306.374,73.855,306.557,79.912,302.886,86.361z"	/><path style="fill:#221F1F;" d="M95.196,94.75c-3.408-4.719-7.025-8.547-7.025-17.277V48.425c0-12.296,0.865-23.595-8.206-32.063	c-7.157-6.869-19.008-9.281-28.078-9.281c-17.723,0-37.517,6.606-41.685,28.524c-0.42,2.333,1.258,3.565,2.778,3.906l18.09,1.94	c1.678-0.079,2.91-1.73,3.225-3.408c1.547-7.55,7.892-11.194,14.996-11.194c3.828,0,8.18,1.416,10.461,4.85	c2.595,3.828,2.254,9.071,2.254,13.501v2.412c-10.801,1.232-24.932,2.019-35.052,6.476C15.288,59.122,7.082,69.425,7.082,84.552	c0,19.375,12.217,29.048,27.895,29.048c13.266,0,20.502-3.119,30.727-13.555c3.408,4.903,4.509,7.289,10.696,12.428	c1.39,0.734,3.172,0.655,4.404-0.445l0.053,0.052c3.723-3.304,10.486-9.202,14.288-12.374C96.665,98.447,96.402,96.428,95.196,94.75	z M58.519,86.361c-2.963,5.244-7.655,8.468-12.898,8.468c-7.157,0-11.326-5.453-11.326-13.502c0-15.887,14.235-18.771,27.711-18.771	v4.037C62.006,73.855,62.189,79.912,58.519,86.361z"/><path id="path32" style="fill:#221F1F;" d="M954.821,11.066c4.482,0,8.206,3.618,8.206,8.18c0,4.457-3.671,8.206-8.206,8.206	c-4.51,0-8.18-3.67-8.18-8.206C946.641,14.631,950.364,11.066,954.821,11.066 M954.847,9.493c-5.244,0-9.779,4.247-9.779,9.779	c0,5.427,4.457,9.752,9.779,9.752c5.348,0,9.752-4.378,9.752-9.752C964.599,13.74,960.117,9.493,954.847,9.493 M951.177,24.751	h2.098v-4.404h1.939c0.761,0,0.971,0.315,1.128,0.944c0,0.157,0.367,2.937,0.394,3.46h2.333c-0.288-0.524-0.446-2.019-0.551-2.91	c-0.21-1.39-0.314-2.36-1.809-2.464c0.76-0.262,2.071-0.682,2.071-2.701c0-2.884-2.544-2.884-3.854-2.884h-3.749V24.751 M953.221,15.549h1.757c0.576,0,1.625,0,1.625,1.494c0,0.577-0.262,1.547-1.678,1.547h-1.704V15.549"/></svg>