<?xml version="1.0" encoding="utf-8"?>
<!-- Generator: Adobe Illustrator 20.0.0, SVG Export Plug-In . SVG Version: 6.00 Build 0)  -->
<svg version="1.1" id="Layer_1" xmlns="http://www.w3.org/2000/svg" xmlns:xlink="http://www.w3.org/1999/xlink" x="0px" y="0px"
	 viewBox="0 0 187.1 77.4" style="enable-background:new 0 0 187.1 77.4;" xml:space="preserve">
<g>
	<path d="M94.1,8.4c1.3,0.1,2.5,0.6,3.5,1.4c1.3,1.2,1.7,3.3,1,5c-2.4,5-8.2,8.3-12.1,9.4c-2.3,0.6-5.3,0.6-7.5-0.3
		c-1,0.6-1.9,2.6-3.2,1.8c-1.8-1.4-0.2-3.7-1.3-5.3c-0.2-0.3-0.8-0.4-1-0.9c-1.4-3.2,0.3-6.2,2.3-8.6C79.2,7.2,88.8,3.1,94.1,8.4
		L94.1,8.4L94.1,8.4L94.1,8.4z M83,10.9c-1.9,0.3-4,1.2-5.1,2.5c-1.1,1.3-1.9,2.6-1.2,4c2.4-1.8,3.6-4.3,6.3-5.8
		C83,11.3,83.4,11.1,83,10.9L83,10.9L83,10.9L83,10.9z M94.3,11.6c-4.8-0.4-8.4,3.2-11.7,6.6c-0.2,0.6-1.4,1.2-0.5,1.8
		c4.6,0.4,8.9-0.9,12.2-3.9c1-0.9,1.7-2.1,1.2-3.3C95.2,12.3,94.7,11.8,94.3,11.6L94.3,11.6L94.3,11.6L94.3,11.6z"/>
	<path d="M135.5,32.2c2.2,5.4,4.1,13.9,0,19c-1.1,1.2-3,2.4-4.3,1.4c-4.6-3.7-6.5-8.9-9.3-13.6c-0.4-0.2-0.4,0.3-0.6,0.6
		c-1,4.8,0.9,11-2.3,14.7c-1.2,0.2-2.4-0.4-2.8-1.7c-1.6-4.9,0.1-10,0.5-14.9c1-2.5,1.4-5.4,3.5-7.2c3.5,1.4,5.1,5.2,7.1,8.1
		c1.5,2.1,2.6,4.6,4.3,6.5c1.4-0.6,0.7-2.5,0.7-3.7c-0.6-4.5-1.8-8.6-3-12.9c-0.1-1.1-0.7-3,0.5-3.7
		C132.8,26.3,134.1,29.5,135.5,32.2L135.5,32.2L135.5,32.2L135.5,32.2z"/>
	<path d="M114.7,30.5c0,1-0.8,2.3-1.5,2.5c-6.6,1-14,0.4-20.2,2.5c-0.2,0.8,0.7,0.9,1.2,1.1c5.3,0.8,10.9,1,16.1,2.3
		c2.7,0.7,3.7,3.9,3.9,6.6c0.1,2.1-0.7,4.7-2.8,6.1c-5.1,3.2-12.9,3.1-18.1,0.1c-2-1.1-3.9-2.9-4-5.1c0-1.8,0.8-3.1,2-3.8
		c5-2,11.1-0.9,15.4,1.7c0.3,1.4-1.2,1.3-1.9,1.8c-4.8,2.8-8.4-3.1-12.8-1c-0.6,0.4-1.1,1.6-0.3,1.9c5.5,2.4,11.5,0.7,16.9-0.8
		c0.6-0.2,1.4-0.8,1.4-1.4c-0.2-2.2-2.7-2.7-4.3-3.3c-4.7-1.2-9.9-1.2-14.9-1.7c-1-0.2-2.2-0.9-2.5-1.7c-0.6-1.7-0.6-3.9,0.7-5.3
		c6.4-5.7,16.1-5.2,24.3-3.7C113.9,29.7,114.5,29.9,114.7,30.5L114.7,30.5L114.7,30.5L114.7,30.5z"/>
	<path d="M84.5,33.2c0.6,6.6,1,12.8,0.8,19.7c-0.1,0.9-1.2,1.1-1.9,1.4c-1.1,0.2-2.5,0-3-0.6c-1.6-2.6-1-6-1.2-9.1
		c0.2-4.9,0.1-10.2,1.5-14.8c0.3-0.7,1-1.2,1.7-0.8C84.2,29.8,84.5,31.5,84.5,33.2L84.5,33.2L84.5,33.2L84.5,33.2z"/>
	<path d="M161.2,32.2c0.3,0.6,0.7,1.4,0,1.8c-3.1,1.4-7.3,0.8-10.9,1.2c-1,0.8-1.7,2.2-1.4,3.5c0.3,0.2,0.7,0.5,1,0.5
		c2.2,0.1,5.5-1,7,1c0.4,0.6,0,2.9-1,3c-2.7,0.3-7.1-0.3-8.4,0.3c-1.7,1.1-1.5,3.2-2.1,5c1.2,0.8,2.4,0,3.8-0.2
		c2.6-0.4,5.4-1.2,7.9-0.6c0.5,0.9,1.2,1.9,0.7,3c-4.4,3.5-10,7-15.9,4.5c-2.2-1-3.2-4.4-2.5-7.3c0.5-2.1,2.6-4.1,1.3-6.3
		c-0.2-1,0.3-1.8,1.2-2c2.3,0,1.8-2.8,3-4.1c-1.3-1.4-4.6-1.4-4.3-4.3c1.6-0.8,3.5-0.6,5.3-0.8c4.1-0.8,8.6-1.3,12.8-0.8
		C159.4,29.5,160.5,31.2,161.2,32.2L161.2,32.2L161.2,32.2L161.2,32.2z"/>
	<path d="M62.6,16.4c6.4,5.2,14.6,14.1,13.6,24.3c-1.2,8.1-9.8,14.1-17,16.1c-7,2.1-15.9,1.9-23.1,0.2c-0.5,1.3-1,2.9-2.5,3.5
		c-1,0.3-2.2,0.1-3-0.5c-2.1-2-0.4-5.9-3.5-7.1c-6.1-2.6-12.6-7.6-15.7-13.8c-0.4-1.2,0.1-2.5,0.8-3.4C17,31.8,23,30.3,29,29.2
		c0.3,0.1,0.2-0.3,0.5-0.5c0.3-4.1,0.5-8.4,1.8-12.1c0.3-0.5,1-0.7,1.5-0.3c3.8,2.9,2,8.4,3.7,12.3c7.2,0.3,14.5,0.7,20.2,4.8
		c1.9,1.6,2.4,4.6,1.8,6.3c-0.6,1.7-2.6,3-4.5,3.1c-1.2,0-3.6,0.1-3.5-0.8c0.1-0.9,4.2-2.5,3-3.8c-1.8-1.9-10.8-3-16.4-3.7
		c-0.7-0.1-1.3,0.1-1.3,0.8c-0.1,5.2-0.6,11,0.3,16.1c0.1,0.3,0.5,0.8,0.8,0.8c9.9,1.6,20.3,0.7,28-5c3.6-2.9,4.8-7,4.1-11.5
		C66,23.3,53,15.8,42.3,10.9C31.9,6.4,20.3,4,8,4.6C6,4.8,2.9,5.5,2.9,6.2C2.9,6.9,6.4,6.6,6,8c-0.4,1.3-4,0.5-5.1,0.2
		c-1.1-0.3-1-1.9-0.7-2.8C2.9,0.6,10.4,0.2,13.8,0C32.6-0.5,50.7,6.7,62.6,16.4L62.6,16.4L62.6,16.4L62.6,16.4z M28.8,34.9
		c-4.8,0.1-9.8,0.6-14.2,2.2c-0.9,0.3-2,1.3-1.3,2.5c1.8,2.4,4.4,4.4,6.8,5.8c2.4,1.4,5.6,3.2,8.5,3.6c0.7-4.5,0.7-8.9,0.6-13.5
		C28.9,35.4,29.2,35.1,28.8,34.9L28.8,34.9L28.8,34.9L28.8,34.9z"/>
	<path d="M171.5,28.7c-0.2,6-5.8,9.7-5.8,15.7c0.2,0.2,0.3,0.5,0.6,0.3c4.5-4.9,8.9-11.9,15.5-13.9c1.7-0.1,3.3,1.4,3.9,2.5
		c2.3,4.6,1.7,11-1.4,15.1c-3.3,4.1-9,8.1-15.5,7.5c-2.7,6.6-4.6,13.6-5.6,20.8c-0.6,1.4-1.9,0.1-2.7-0.1c-5.6-4.4-1-16.1-0.6-17.6
		c0.4-1.5,1.9-5,3-7.9c-2.6-4.7-1-10.4,1.2-14.7c1.7-2.9,3.9-5.8,6.6-8C171,28.3,171.3,28.4,171.5,28.7L171.5,28.7L171.5,28.7
		L171.5,28.7z M182.6,36.1c-0.8-0.1-1.2,1-1.9,1.2c-3.2,3.6-6.4,7.2-7.9,11.5c2.1,0.3,3.9-1.1,5.8-1.9c3.2-2,5.2-5.3,5-9.1
		C183.4,37.2,182.9,36.7,182.6,36.1L182.6,36.1L182.6,36.1L182.6,36.1z"/>
</g>
</svg>
