<?xml version="1.0" encoding="iso-8859-1"?><!-- Generator: Adobe Illustrator 16.0.0, SVG Export Plug-In . SVG Version: 6.00 Build 0) --><!DOCTYPE svg PUBLIC "-//W3C//DTD SVG 1.1//EN" "http://www.w3.org/Graphics/SVG/1.1/DTD/svg11.dtd"><svg version="1.1" id="svg3070" inkscape:version="0.48.0 r9654" sodipodi:docname="New document 4" xmlns:rdf="http://www.w3.org/1999/02/22-rdf-syntax-ns#" xmlns:sodipodi="http://sodipodi.sourceforge.net/DTD/sodipodi-0.dtd" xmlns:dc="http://purl.org/dc/elements/1.1/" xmlns:inkscape="http://www.inkscape.org/namespaces/inkscape" xmlns:svg="http://www.w3.org/2000/svg" xmlns:cc="http://creativecommons.org/ns#" xmlns="http://www.w3.org/2000/svg" xmlns:xlink="http://www.w3.org/1999/xlink" x="0px" y="0px" width="287.865px" height="76.248px" viewBox="1.786 1.783 287.865 76.248" style="enable-background:new 1.786 1.783 287.865 76.248;" xml:space="preserve"><sodipodi:namedview id="base" inkscape:window-y="-8" inkscape:window-width="1280" fit-margin-bottom="0" inkscape:pageshadow="2" fit-margin-right="0" inkscape:window-maximized="1" inkscape:window-x="-8" inkscape:window-height="750" inkscape:pageopacity="0.0" inkscape:document-units="px" inkscape:current-layer="layer1" fit-margin-left="0" bordercolor="#666666" inkscape:cx="142.93233" showgrid="false" borderopacity="1.0" pagecolor="#ffffff" inkscape:cy="33.703355" inkscape:zoom="2.8" fit-margin-top="0"></sodipodi:namedview><g id="layer1" transform="translate(-200.55198,-393.96227)" inkscape:groupmode="layer" inkscape:label="Layer 1"><g id="g3019" transform="matrix(1.018827,0,0,-1.018827,170.5996,498.03288)"><path id="path14" inkscape:connector-curvature="0" style="fill:#006699;" d="M239.329,95.036c0,2.96,2.461,5.361,5.496,5.361	h63.375c3.036,0,5.496-2.401,5.496-5.361V30.919c0-2.96-2.46-5.36-5.496-5.36h-63.375c-3.035,0-5.496,2.4-5.496,5.36V95.036z"/><path id="path16" inkscape:connector-curvature="0" d="M31.151,37.709h31.036v10.189H42.383v38.874H31.151V37.709z"/><path id="path18" inkscape:connector-curvature="0" d="M77.9,37.709v33.793H66.667V37.709H77.9z M72.284,76.116	c3.917,0,6.355,2.595,6.355,5.84c-0.073,3.315-2.438,5.837-6.28,5.837c-3.843,0-6.355-2.522-6.355-5.837	c0-3.245,2.438-5.84,6.207-5.84H72.284L72.284,76.116z"/><path id="path20" inkscape:connector-curvature="0" d="M83.115,37.709h11.232v18.872c0,1.01,0.073,2.02,0.37,2.74	c0.811,2.018,2.659,4.108,5.763,4.108c4.065,0,5.691-3.099,5.691-7.64V37.709h11.231v19.377c0,10.38-5.542,15.21-12.932,15.21	c-6.059,0-8.72-3.387-10.198-5.694h0.075v4.9H83.115C83.263,68.331,83.115,37.709,83.115,37.709L83.115,37.709z"/><path id="path22" inkscape:connector-curvature="0" d="M133.249,86.772h-11.233V37.709h11.233v10.956l2.807,3.535l8.794-14.491	h13.818l-14.778,20.978l12.931,14.271h-13.522c0,0-9.237-12.768-10.05-14.283V86.772z"/><path id="path24" inkscape:connector-curvature="0" d="M188.706,51.805c0.148,0.868,0.37,2.533,0.37,4.415	c0,8.736-4.435,17.605-16.11,17.605c-12.489,0-18.253-9.877-18.253-18.835c0-11.08,7.02-17.999,19.287-17.999	c4.877,0,9.384,0.719,13.08,2.233l-1.478,7.418c-3.031-1.005-6.134-1.508-9.976-1.508c-5.246,0-9.827,2.154-10.197,6.744	l23.277-0.071V51.805z M165.356,59.404c0.295,2.884,2.217,7.139,7.02,7.139c5.098,0,6.282-4.543,6.282-7.139H165.356z"/><path id="path26" inkscape:connector-curvature="0" d="M216.8,86.772V69.788h-0.148c-1.626,2.377-5.025,3.963-9.531,3.963	c-8.646,0-16.257-6.92-16.184-18.741c0-10.958,6.873-18.094,15.444-18.094c4.656,0,9.089,2.02,11.307,5.912h0.221l0.444-5.119	h9.976c-0.148,2.379-0.297,6.488-0.297,10.525v38.539H216.8z M216.8,53.352c0-0.865-0.073-1.731-0.222-2.45	c-0.663-3.101-3.324-5.262-6.575-5.262c-4.655,0-7.685,3.748-7.685,9.658c0,5.55,2.588,10.02,7.759,10.02	c3.473,0,5.911-2.378,6.576-5.333c0.148-0.65,0.148-1.372,0.148-2.02V53.352z"/><path id="path28" inkscape:connector-curvature="0" style="fill:#FFFFFF;" d="M261.873,37.749v33.794H250.64V37.749H261.873z M256.257,76.157c3.917,0,6.355,2.595,6.355,5.838c-0.073,3.316-2.438,5.839-6.28,5.839c-3.844,0-6.355-2.523-6.355-5.839	c0-3.243,2.437-5.838,6.207-5.838H256.257L256.257,76.157z"/><path id="path30" inkscape:connector-curvature="0" style="fill:#FFFFFF;" d="M268.089,37.749h11.232v18.872	c0,1.009,0.073,2.02,0.37,2.74c0.811,2.019,2.659,4.109,5.763,4.109c4.064,0,5.69-3.099,5.69-7.642V37.749h11.232v19.377	c0,10.38-5.541,15.21-12.931,15.21c-6.059,0-8.72-3.387-10.198-5.694h0.075v4.901h-11.232	C268.236,68.372,268.089,37.749,268.089,37.749L268.089,37.749z"/></g></g></svg>