<?xml version="1.0" encoding="iso-8859-1"?><!-- Generator: Adobe Illustrator 16.0.0, SVG Export Plug-In . SVG Version: 6.00 Build 0) --><!DOCTYPE svg PUBLIC "-//W3C//DTD SVG 1.1//EN" "http://www.w3.org/Graphics/SVG/1.1/DTD/svg11.dtd"><svg version="1.1" id="svg5358" xmlns:svg="http://www.w3.org/2000/svg" xmlns="http://www.w3.org/2000/svg" xmlns:xlink="http://www.w3.org/1999/xlink" x="0px" y="0px" width="1033.746px" height="220.695px" viewBox="0 0 1033.746 220.695" style="enable-background:new 0 0 1033.746 220.695;" xml:space="preserve"><path id="path5056" style="fill:#706D6E;" d="M1033.746,99.838v-18.18h-22.576V53.395l-0.76,0.234l-21.205,6.488l-0.418,0.127	v21.415h-33.469V69.729c0-5.555,1.242-9.806,3.69-12.641c2.431-2.801,5.908-4.225,10.343-4.225c3.188,0,6.489,0.751,9.811,2.232	l0.833,0.372V36.321l-0.392-0.144c-3.099-1.114-7.314-1.675-12.539-1.675c-6.585,0-12.568,1.433-17.786,4.273	c-5.221,2.844-9.328,6.904-12.205,12.066c-2.867,5.156-4.322,11.111-4.322,17.701v13.116h-15.72v18.18h15.72v76.589h22.567V99.838	h33.469v48.671c0,20.045,9.455,30.203,28.102,30.203c3.064,0,6.289-0.359,9.582-1.062c3.352-0.722,5.635-1.443,6.979-2.213	l0.297-0.176v-18.348l-0.918,0.607c-1.225,0.816-2.75,1.483-4.538,1.979c-1.796,0.505-3.296,0.758-4.458,0.758	c-4.368,0-7.6-1.177-9.605-3.5c-2.028-2.344-3.057-6.443-3.057-12.177V99.838H1033.746z M866.635,160.26	c-8.191,0-14.649-2.716-19.2-8.066c-4.579-5.377-6.899-13.043-6.899-22.783c0-10.049,2.32-17.914,6.901-23.386	c4.554-5.436,10.95-8.195,19.014-8.195c7.825,0,14.054,2.635,18.516,7.836c4.484,5.228,6.76,13.03,6.76,23.196	c0,10.291-2.14,18.196-6.36,23.484C881.176,157.594,874.874,160.26,866.635,160.26 M867.638,79.375	c-15.627,0-28.039,4.579-36.889,13.61c-8.844,9.032-13.328,21.531-13.328,37.153c0,14.838,4.377,26.773,13.011,35.468	c8.634,8.698,20.384,13.104,34.921,13.104c15.148,0,27.313-4.643,36.159-13.799c8.845-9.146,13.326-21.527,13.326-36.784	c0-15.07-4.205-27.094-12.502-35.731C894.035,83.755,882.359,79.375,867.638,79.375 M781.036,79.375	c-10.63,0-19.423,2.719-26.14,8.08c-6.758,5.393-10.186,12.466-10.186,21.025c0,4.449,0.74,8.401,2.196,11.753	c1.465,3.363,3.732,6.324,6.744,8.809c2.989,2.465,7.603,5.047,13.717,7.674c5.14,2.115,8.973,3.904,11.408,5.314	c2.38,1.382,4.069,2.771,5.023,4.124c0.927,1.324,1.397,3.136,1.397,5.372c0,6.367-4.768,9.465-14.579,9.465	c-3.639,0-7.79-0.76-12.337-2.258c-4.551-1.496-8.802-3.647-12.634-6.406l-0.937-0.672v21.727l0.344,0.16	c3.193,1.474,7.219,2.717,11.964,3.695c4.736,0.979,9.039,1.477,12.777,1.477c11.535,0,20.824-2.732,27.602-8.125	c6.821-5.43,10.278-12.67,10.278-21.525c0-6.388-1.861-11.866-5.529-16.284c-3.643-4.382-9.966-8.405-18.785-11.961	c-7.026-2.82-11.527-5.161-13.384-6.958c-1.79-1.736-2.699-4.191-2.699-7.3c0-2.756,1.122-4.964,3.425-6.752	c2.321-1.797,5.552-2.711,9.604-2.711c3.76,0,7.607,0.594,11.433,1.758c3.823,1.164,7.181,2.723,9.984,4.63l0.922,0.63v-20.61	l-0.354-0.152c-2.586-1.109-5.996-2.058-10.138-2.828C788.029,79.761,784.289,79.375,781.036,79.375 M685.879,160.26	c-8.189,0-14.649-2.716-19.199-8.066c-4.58-5.377-6.896-13.041-6.896-22.783c0-10.049,2.319-17.914,6.901-23.386	c4.55-5.436,10.945-8.195,19.013-8.195c7.822,0,14.051,2.635,18.514,7.836c4.485,5.228,6.76,13.03,6.76,23.196	c0,10.291-2.141,18.196-6.361,23.484C700.42,157.594,694.121,160.26,685.879,160.26 M686.885,79.375	c-15.631,0-28.044,4.579-36.889,13.61c-8.844,9.032-13.331,21.531-13.331,37.153c0,14.844,4.38,26.773,13.014,35.468	c8.634,8.698,20.383,13.104,34.92,13.104c15.146,0,27.314-4.643,36.16-13.799c8.843-9.146,13.326-21.527,13.326-36.784	c0-15.07-4.206-27.094-12.505-35.731C713.277,83.755,701.603,79.375,686.885,79.375 M602.409,98.07V81.658h-22.292v94.767h22.292	v-48.477c0-8.243,1.869-15.015,5.557-20.13c3.641-5.054,8.493-7.615,14.417-7.615c2.008,0,4.262,0.331,6.703,0.986	c2.416,0.651,4.166,1.358,5.198,2.102l0.937,0.679V81.496l-0.361-0.155c-2.076-0.882-5.013-1.327-8.729-1.327	c-5.602,0-10.615,1.8-14.909,5.344c-3.769,3.115-6.493,7.386-8.576,12.712H602.409z M540.196,79.375	c-10.227,0-19.349,2.193-27.108,6.516c-7.775,4.333-13.788,10.519-17.879,18.385c-4.073,7.847-6.141,17.013-6.141,27.235	c0,8.954,2.005,17.171,5.968,24.413c3.965,7.254,9.577,12.929,16.681,16.865c7.094,3.931,15.293,5.924,24.371,5.924	c10.594,0,19.639-2.118,26.891-6.295l0.293-0.168v-20.423l-0.937,0.684c-3.285,2.393-6.956,4.303-10.906,5.679	c-3.94,1.375-7.532,2.07-10.682,2.07c-8.747,0-15.769-2.737-20.866-8.133c-5.108-5.403-7.698-12.99-7.698-22.537	c0-9.607,2.701-17.389,8.024-23.131c5.307-5.725,12.342-8.629,20.908-8.629c7.327,0,14.467,2.481,21.222,7.381l0.935,0.679V84.371	l-0.302-0.17c-2.542-1.423-6.009-2.598-10.313-3.489C548.371,79.823,544.179,79.375,540.196,79.375 M473.715,81.659h-22.292v94.766	h22.292V81.659z M462.797,41.288c-3.669,0-6.869,1.249-9.498,3.724c-2.64,2.482-3.979,5.607-3.979,9.295	c0,3.63,1.323,6.698,3.938,9.114c2.598,2.409,5.808,3.63,9.54,3.63c3.731,0,6.953-1.221,9.582-3.626	c2.646-2.42,3.988-5.487,3.988-9.118c0-3.559-1.306-6.652-3.879-9.195C469.918,42.574,466.656,41.288,462.797,41.288 M407.177,74.667v101.758h22.75V44.189H398.44l-40.022,98.221l-38.839-98.221H286.81v132.235h21.379V74.657h0.734l41.013,101.768	h16.134l40.373-101.758H407.177z"/><path id="path5058" style="fill:#F1511B;" d="M104.868,104.868H0V0h104.868V104.868z"/><path id="path5060" style="fill:#80CC28;" d="M220.654,104.868H115.788V0h104.866V104.868z"/><path id="path5062" style="fill:#00ADEF;" d="M104.865,220.695H0V115.828h104.865V220.695z"/><path id="path5064" style="fill:#FBBC09;" d="M220.654,220.695H115.788V115.828h104.866V220.695z"/></svg>