<?xml version="1.0" encoding="utf-8"?>
<!-- Generator: Adobe Illustrator 20.0.0, SVG Export Plug-In . SVG Version: 6.00 Build 0)  -->
<svg version="1.1" id="Layer_1" xmlns="http://www.w3.org/2000/svg" xmlns:xlink="http://www.w3.org/1999/xlink" x="0px" y="0px"
	 viewBox="0 0 187.1 97.8" style="enable-background:new 0 0 187.1 97.8;" xml:space="preserve">
<g>
	<path d="M31.4,59.8c-1.5,0-2.7,1-2.7,2.6c0,1.5,1.2,2.6,2.7,2.6c1.5,0,2.7-1,2.7-2.6C34,60.9,32.9,59.8,31.4,59.8L31.4,59.8
		L31.4,59.8L31.4,59.8z M31.4,64.2c-1.1,0-1.8-0.8-1.8-1.8c0-1,0.8-1.8,1.8-1.8c1.1,0,1.8,0.8,1.8,1.8
		C33.2,63.4,32.4,64.2,31.4,64.2L31.4,64.2L31.4,64.2L31.4,64.2z"/>
	<polygon points="57.2,50.9 44.3,50.9 45.7,28.4 37.3,50.9 25.4,50.9 44.4,0.2 57.1,0.2 55.7,22.9 64.2,0.2 76.2,0.2 57.2,50.9 	"/>
	<polygon points="58.7,50.9 77.8,0.2 89.8,0.2 70.7,50.9 58.7,50.9 	"/>
	<path d="M24,33.4C7.2,53.1-8.6,79.3,5.4,91.3c13.5,11.7,30.4,4.8,42,0.2c11.5-4.6,139-60,139-60c1.2-0.6,1-1.4-0.5-1
		C185.2,30.7,47,68.1,47,68.1C29.5,73,9.5,62.3,24,33.4L24,33.4L24,33.4L24,33.4z"/>
	<path d="M31.8,62.6c0.4,0,0.7-0.2,0.7-0.7c0-0.7-0.4-0.8-1.2-0.8l0,0h-1v2.8H31v-1.2h0.1l0.6,1.2h0.8L31.8,62.6L31.8,62.6
		L31.8,62.6z M31.4,62.1H31v-0.6h0.3l0,0c0.2,0,0.4,0,0.4,0.3C31.7,62.1,31.6,62.1,31.4,62.1L31.4,62.1L31.4,62.1L31.4,62.1z"/>
	<path d="M151.9,0c-1.5,0-2.7,1-2.7,2.6c0,1.5,1.2,2.6,2.7,2.6s2.7-1,2.7-2.6C154.6,1,153.4,0,151.9,0L151.9,0L151.9,0L151.9,0z
		 M151.9,4.4c-1.1,0-1.8-0.8-1.8-1.8c0-1,0.8-1.8,1.8-1.8c1.1,0,1.8,0.8,1.8,1.8C153.8,3.6,153,4.4,151.9,4.4L151.9,4.4L151.9,4.4
		L151.9,4.4z"/>
	<path d="M152.4,2.7c0.4,0,0.7-0.2,0.7-0.7c0-0.7-0.4-0.8-1.2-0.8l0,0h-1v2.8h0.7V2.8h0.1l0.6,1.2h0.8L152.4,2.7L152.4,2.7
		L152.4,2.7z M151.9,2.3h-0.4V1.7h0.3l0,0c0.2,0,0.4,0,0.4,0.3C152.3,2.2,152.2,2.3,151.9,2.3L151.9,2.3L151.9,2.3L151.9,2.3z"/>
	<path d="M144,8.6l3.2-8.5h-24h-0.1h-12.5L98.1,15.4l5.8-15.2H91.7L72.9,50.9h12l8.1-21.2l0.6,21.2l36.8-0.1l3.5-9.8h-14l4.6-12.3
		h11.5l3.5-9.5h-11.5l4-10.7L144,8.6L144,8.6L144,8.6z M105.4,47.5l-0.8-26.4l18.1-19.9L105.4,47.5L105.4,47.5L105.4,47.5z"/>
</g>
</svg>
