<?xml version="1.0" encoding="utf-8"?>
<svg version="1.1" id="Layer_1" xmlns="http://www.w3.org/2000/svg" xmlns:xlink="http://www.w3.org/1999/xlink" x="0px" y="0px"
	 viewBox="0 0 159.9 32" style="enable-background:new 0 0 159.9 32;" xml:space="preserve">
<style type="text/css">
	.st0{fill:#29A9E1;}
</style>
<g>
	<path class="st0" d="M48.5,7.2v1.5L46.6,9v15.2h-2.3l-8.2-13.2l-0.1,0v11.3l1.9,0.3v1.5h-6.1v-1.5l1.9-0.3V9l-1.9-0.3V7.2h1.9h2.3
		l8.2,13.2l0.1,0V9l-1.9-0.3V7.2h4.2H48.5z"/>
	<path class="st0" d="M50.3,17.8c0-1.9,0.5-3.4,1.5-4.6s2.4-1.8,4.1-1.8c1.8,0,3.1,0.6,4.2,1.8s1.5,2.8,1.5,4.6V18
		c0,1.9-0.5,3.4-1.5,4.6s-2.4,1.8-4.1,1.8c-1.8,0-3.1-0.6-4.2-1.8s-1.5-2.8-1.5-4.6V17.8z M52.6,18c0,1.3,0.3,2.5,0.8,3.3
		s1.4,1.3,2.5,1.3c1.1,0,1.9-0.4,2.5-1.3s0.9-2,0.9-3.3v-0.3c0-1.3-0.3-2.4-0.9-3.3s-1.4-1.3-2.5-1.3s-1.9,0.4-2.5,1.3
		s-0.8,2-0.8,3.3V18z"/>
	<path class="st0" d="M68.3,13l-1.5,0.3l1.7,6.3l0.3,1.5h0.1l0.3-1.5l2.5-8.1h1.9l2.5,8.1l0.4,1.7h0.1l0.3-1.7l1.6-6.3L76.9,13v-1.5
		h4.8V13l-1.1,0.2l-3.2,11h-1.9l-2.5-7.7l-0.5-2.1l-0.1,0l-0.5,2.1l-2.4,7.7h-1.9l-3.2-11L63.5,13v-1.5h4.8V13z"/>
	<path class="st0" d="M95.8,12.2H94l-0.4-2.4c-0.4-0.3-0.8-0.5-1.4-0.7s-1.3-0.3-2-0.3c-1.2,0-2.2,0.3-2.8,0.8s-1,1.2-1,2
		c0,0.7,0.3,1.4,1,1.9s1.7,0.9,3.2,1.3c1.8,0.4,3.2,1.1,4.1,2s1.4,1.9,1.4,3.2c0,1.4-0.6,2.5-1.7,3.3s-2.6,1.3-4.4,1.3
		c-1.3,0-2.5-0.2-3.5-0.6s-1.8-1-2.5-1.7V19h1.7l0.4,2.4c0.4,0.4,1,0.7,1.6,0.9s1.4,0.4,2.2,0.4c1.2,0,2.1-0.2,2.8-0.7s1-1.2,1-2
		c0-0.8-0.3-1.4-0.9-2s-1.6-1-3.1-1.3c-1.8-0.4-3.2-1.1-4.2-1.9S84,12.9,84,11.6c0-1.3,0.6-2.4,1.7-3.3s2.6-1.3,4.4-1.3
		c1.2,0,2.3,0.2,3.3,0.6s1.8,0.9,2.4,1.5V12.2z"/>
	<path class="st0" d="M98.3,18.1c0-2,0.4-3.7,1.3-4.9s2.1-1.9,3.7-1.9c0.7,0,1.4,0.1,2,0.4s1.1,0.7,1.5,1.2l0.2-1.4h2v15.7l1.9,0.3
		v1.5h-6.1v-1.5l1.9-0.3V23c-0.4,0.5-0.9,0.8-1.4,1.1s-1.2,0.4-1.9,0.4c-1.5,0-2.8-0.6-3.6-1.7s-1.3-2.6-1.3-4.4V18.1z M100.6,18.4
		c0,1.3,0.3,2.3,0.8,3.1s1.3,1.2,2.4,1.2c0.6,0,1.2-0.1,1.6-0.4s0.8-0.7,1.1-1.2v-6.4c-0.3-0.5-0.7-0.9-1.1-1.1s-1-0.4-1.6-0.4
		c-1.1,0-1.9,0.5-2.4,1.4s-0.8,2.1-0.8,3.6V18.4z"/>
	<path class="st0" d="M120.8,22.4c-0.4,0.7-0.9,1.2-1.5,1.6s-1.4,0.6-2.2,0.6c-1.4,0-2.4-0.4-3.2-1.3s-1.2-2.3-1.2-4.1v-5.7
		l-1.5-0.3v-1.5h1.5h2.3v7.5c0,1.4,0.2,2.3,0.6,2.8s1,0.8,1.9,0.8c0.8,0,1.5-0.2,2-0.5s0.9-0.8,1.2-1.4v-7.3l-1.7-0.3v-1.5h1.7h2.3
		v10.9l1.5,0.3v1.5H121L120.8,22.4z"/>
	<path class="st0" d="M134.6,24.2c-0.1-0.3-0.1-0.7-0.2-0.9s-0.1-0.5-0.1-0.8c-0.4,0.6-1,1-1.7,1.4s-1.4,0.6-2.1,0.6
		c-1.3,0-2.3-0.3-3-1s-1-1.6-1-2.7c0-1.2,0.5-2.1,1.5-2.8s2.3-1,4-1h2.4v-1.5c0-0.7-0.2-1.3-0.7-1.8s-1.1-0.7-2-0.7
		c-0.6,0-1.1,0.1-1.5,0.2s-0.8,0.4-1.1,0.6l-0.2,1.3h-1.8v-2.5c0.6-0.5,1.3-0.8,2.1-1.1s1.7-0.4,2.7-0.4c1.4,0,2.6,0.4,3.5,1.1
		s1.3,1.8,1.3,3.2v6.1c0,0.2,0,0.3,0,0.5s0,0.3,0,0.5l0.9,0.1v1.5H134.6z M130.9,22.5c0.8,0,1.5-0.2,2.1-0.6s1.1-0.8,1.4-1.3v-2.1
		h-2.5c-0.9,0-1.7,0.2-2.2,0.7c-0.6,0.4-0.8,1-0.8,1.6c0,0.6,0.2,1,0.5,1.3S130.2,22.5,130.9,22.5z"/>
	<path class="st0" d="M139.6,13v-1.5h4l0.2,1.8c0.4-0.6,0.8-1.2,1.3-1.5s1.1-0.6,1.8-0.6c0.2,0,0.4,0,0.6,0s0.3,0.1,0.4,0.1
		l-0.3,2.1l-1.3-0.1c-0.6,0-1.1,0.1-1.5,0.4s-0.7,0.7-1,1.2v7.3l1.9,0.3v1.5h-6.1v-1.5l1.9-0.3v-9.1L139.6,13z"/>
	<path class="st0" d="M155.1,24.5c-1.8,0-3.2-0.6-4.2-1.8s-1.6-2.7-1.6-4.6v-0.5c0-1.8,0.5-3.3,1.6-4.5s2.3-1.8,3.8-1.8
		c1.7,0,3,0.5,3.9,1.5s1.3,2.4,1.3,4.1v1.4h-8.2l0,0.1c0,1.2,0.3,2.2,0.9,3s1.4,1.2,2.5,1.2c0.8,0,1.5-0.1,2.1-0.3s1.1-0.5,1.5-0.9
		l0.9,1.5c-0.5,0.4-1.1,0.8-1.8,1.1S156.1,24.5,155.1,24.5z M154.7,13.1c-0.8,0-1.4,0.3-2,1s-0.9,1.5-1,2.5l0,0.1h5.8v-0.3
		c0-0.9-0.2-1.7-0.7-2.3S155.7,13.1,154.7,13.1z"/>
</g>
<g>
	<path class="st0" d="M12.3,23.2c-0.5,0-1-0.2-1.4-0.6l-7.8-7.8c-1.5-1.6-2.7-5.1,0.2-8l5.2-5.2c0.2-0.2,1.7-1.7,4-1.7c0,0,0,0,0,0
		c1,0,2.4,0.3,3.9,1.7L24,9.5c0.8,0.8,0.8,2.1,0,2.9c-0.8,0.8-2.1,0.8-2.9,0l-7.7-7.7c-0.5-0.5-0.9-0.5-1-0.5
		c-0.5,0-1.1,0.5-1.1,0.5L6.1,9.7c-0.8,0.8-0.8,1.5-0.1,2.3l7.7,7.7c0.8,0.8,0.8,2.1,0,2.9C13.3,23,12.8,23.2,12.3,23.2z"/>
	<path class="st0" d="M12.2,32c-1,0-2.4-0.3-3.9-1.7l-7.7-7.7c-0.8-0.8-0.8-2.1,0-2.9c0.8-0.8,2.1-0.8,2.9,0l7.7,7.7
		c0.5,0.5,0.9,0.5,1,0.5c0.5,0,1.1-0.5,1.1-0.5l5.2-5.2c0.8-0.8,0.8-1.5,0.1-2.3l-7.7-7.7c-0.8-0.8-0.8-2.1,0-2.9
		c0.8-0.8,2.1-0.8,2.9,0l7.8,7.8c1.5,1.6,2.7,5.1-0.2,8l-5.2,5.2C16.1,30.5,14.5,32,12.2,32C12.2,32,12.2,32,12.2,32z M18.7,20
		L18.7,20L18.7,20z"/>
</g>
</svg>
