<?xml version="1.0" encoding="utf-8"?>
<!-- Generator: Adobe Illustrator 21.0.0, SVG Export Plug-In . SVG Version: 6.00 Build 0)  -->
<svg version="1.1" id="Layer_1" xmlns="http://www.w3.org/2000/svg" xmlns:xlink="http://www.w3.org/1999/xlink" x="0px" y="0px"
	 viewBox="0 0 232.6 51.5" style="enable-background:new 0 0 232.6 51.5;" xml:space="preserve">
<style type="text/css">
	.st0{fill:#FFFFFF;}
</style>
<g>
	<path class="st0" d="M80.7,12H83v25.5h-2l-14.5-21v21h-2.3V12h2l14.5,21V12z M102.9,23.7c0.4,1.2,0.6,2.5,0.6,3.8v0.7
		c0,1.4-0.2,2.7-0.6,3.8c-0.4,1.2-1,2.2-1.7,3.1c-0.8,0.9-1.7,1.5-2.7,2c-1.1,0.5-2.2,0.7-3.5,0.7c-1.3,0-2.4-0.2-3.5-0.7
		c-1.1-0.5-2-1.2-2.7-2C88,34.2,87.4,33.2,87,32c-0.4-1.2-0.6-2.5-0.6-3.8v-0.7c0-1.4,0.2-2.7,0.6-3.8c0.4-1.2,1-2.2,1.7-3.1
		c0.8-0.9,1.7-1.5,2.7-2c2.1-1,4.9-1,7,0c1.1,0.5,2,1.2,2.7,2C101.9,21.5,102.5,22.5,102.9,23.7z M92.3,20.8c-0.8,0.4-1.4,0.9-2,1.6
		c-0.5,0.7-1,1.5-1.2,2.3c-0.3,0.9-0.4,1.8-0.4,2.8v0.7c0,1,0.1,2,0.4,2.8c0.3,0.9,0.7,1.7,1.2,2.3c0.5,0.7,1.2,1.2,2,1.6
		c1.5,0.8,3.7,0.8,5.2,0c0.8-0.4,1.4-0.9,1.9-1.6c0.5-0.7,1-1.5,1.2-2.3c0.3-0.9,0.4-1.9,0.4-2.8v-0.7c0-1-0.1-1.9-0.4-2.8
		c-0.3-0.9-0.7-1.7-1.2-2.3c-0.5-0.7-1.2-1.2-2-1.6c-0.8-0.4-1.6-0.6-2.6-0.6C94,20.2,93.1,20.4,92.3,20.8z M123,31.5l-0.4,1.5
		L118,18.2h-0.8l-0.2-0.7l-0.2,0.7h-0.8l-4.7,14.7l-4.2-14.7h-2.5l5.6,19.3h0.8l0.1,0.5l0.2-0.5h0.8l4.5-14l0.2-0.7l4.8,14.7h0.8
		l0.2,0.5l0.1-0.5h0.8l5.6-19.3h-2.5L123,31.5z M146.8,25.9c-0.8-0.6-1.7-1.1-2.7-1.5c-1-0.4-2.1-0.7-3.3-1.1
		c-1.4-0.4-2.6-0.7-3.5-1.1c-0.9-0.4-1.6-0.8-2.1-1.2c-0.5-0.4-0.8-0.8-1-1.3c-0.2-0.5-0.3-1-0.3-1.5c0-0.5,0.1-1,0.4-1.6
		c0.3-0.5,0.7-1,1.2-1.4c0.5-0.4,1.2-0.7,2-1c1.6-0.5,3.9-0.5,5.5,0.1c0.8,0.3,1.5,0.7,2,1.2c0.5,0.5,1,1.1,1.3,1.7
		c0.3,0.7,0.5,1.4,0.5,2.2v0.7h2.3v-0.7c0-1.2-0.2-2.2-0.7-3.2c-0.4-1-1.1-1.8-1.8-2.5c-0.8-0.7-1.7-1.2-2.8-1.6
		c-2.1-0.7-4.7-0.7-6.8-0.1c-1.1,0.3-2,0.7-2.8,1.3c-0.8,0.6-1.4,1.3-1.9,2.1c-0.5,0.8-0.7,1.8-0.7,2.8c0,1.1,0.2,2,0.6,2.8
		c0.4,0.8,1,1.5,1.8,2c0.7,0.5,1.6,1,2.7,1.4c1,0.4,2.1,0.7,3.4,1.1c1.3,0.4,2.5,0.7,3.4,1.1c0.9,0.4,1.6,0.8,2.1,1.2
		c0.5,0.4,0.9,0.9,1.1,1.4c0.2,0.5,0.3,1.1,0.3,1.7c0,0.7-0.1,1.2-0.4,1.8c-0.3,0.5-0.7,1-1.3,1.4c-0.6,0.4-1.3,0.7-2.1,1
		c-1.3,0.4-2.8,0.5-4.4,0.2c-0.6-0.1-1.1-0.2-1.7-0.4c-0.5-0.2-1.1-0.4-1.5-0.7c-0.5-0.3-0.9-0.6-1.2-1c-0.3-0.4-0.6-0.9-0.8-1.4
		c-0.2-0.5-0.3-1.2-0.3-1.9v-0.7h-2.3V30c0,1,0.1,1.9,0.4,2.6c0.3,0.8,0.7,1.5,1.1,2.1c0.5,0.6,1,1.1,1.7,1.5c0.6,0.4,1.3,0.7,2,1
		c0.7,0.2,1.4,0.4,2.2,0.5c0.7,0.1,1.5,0.2,2.2,0.2c1.2,0,2.3-0.1,3.4-0.4c1.1-0.3,2-0.7,2.8-1.3c0.8-0.6,1.5-1.3,2-2.2
		c0.5-0.9,0.7-1.9,0.7-3c0-1.1-0.2-2.1-0.7-3C148.2,27.2,147.6,26.5,146.8,25.9z M164.2,18.2h2.3v26.2h-2.3V36
		c-0.4,0.4-0.9,0.7-1.4,0.9c-0.6,0.3-1.2,0.5-1.9,0.7c-0.7,0.2-1.4,0.3-2.2,0.3c-1.2,0-2.2-0.2-3.2-0.7c-0.9-0.5-1.7-1.2-2.4-2.1
		c-0.6-0.9-1.1-1.9-1.4-3.1c-0.3-1.2-0.5-2.5-0.5-3.9v-0.3c0-1.5,0.2-2.8,0.5-4c0.3-1.2,0.8-2.3,1.4-3.1c0.6-0.9,1.4-1.6,2.4-2
		c0.9-0.5,2-0.7,3.2-0.7c0.8,0,1.5,0.1,2.2,0.3c0.7,0.2,1.3,0.5,1.9,0.8c0.5,0.3,0.9,0.6,1.3,1V18.2z M160.8,35.3
		c0.6-0.2,1.1-0.4,1.6-0.7c0.4-0.3,0.8-0.7,1.1-1.1c0.3-0.4,0.5-0.8,0.7-1.3v-8.1c-0.2-0.4-0.4-0.9-0.6-1.3c-0.3-0.5-0.6-0.9-1-1.3
		c-0.4-0.4-0.9-0.7-1.6-1c-0.6-0.2-1.3-0.4-2.2-0.4c-0.9,0-1.6,0.2-2.2,0.5c-0.6,0.4-1.2,0.8-1.6,1.5c-0.4,0.7-0.8,1.5-1,2.4
		c-0.2,0.9-0.3,2-0.3,3.1V28c0,1.1,0.1,2.2,0.3,3.1c0.2,0.9,0.5,1.7,1,2.4c0.4,0.6,0.9,1.1,1.6,1.5
		C157.7,35.7,159.5,35.7,160.8,35.3z M182.8,31.4c-0.1,0.6-0.3,1.1-0.6,1.7c-0.2,0.5-0.6,0.9-1,1.3c-0.4,0.4-1,0.7-1.6,0.9
		c-0.7,0.2-1.4,0.3-2.4,0.3c-0.6,0-1.2-0.1-1.8-0.3c-0.5-0.2-0.9-0.4-1.3-0.8c-0.4-0.4-0.7-0.9-0.9-1.6c-0.2-0.7-0.3-1.5-0.3-2.6
		V18.2h-2.3v12.1c0,1.3,0.2,2.5,0.5,3.4c0.3,1,0.8,1.8,1.4,2.4c0.6,0.6,1.3,1.1,2.1,1.4c0.8,0.3,1.7,0.4,2.6,0.4
		c1.7,0,3.1-0.3,4.2-1c0.5-0.3,0.9-0.6,1.3-0.9v1.6h2.3V18.2h-2.3L182.8,31.4z M203.3,36.4l0.1,0.4v0.7h-2.3l-0.1-0.5
		c-0.1-0.4-0.2-1-0.3-1.6c-0.5,0.5-1,0.9-1.7,1.3c-0.6,0.4-1.4,0.6-2.1,0.9s-1.7,0.3-2.6,0.3c-0.9,0-1.8-0.1-2.5-0.4
		c-0.8-0.3-1.4-0.7-2-1.1c-0.6-0.5-1-1.1-1.3-1.8c-0.3-0.7-0.4-1.4-0.4-2.3c0-0.9,0.2-1.8,0.7-2.5c0.4-0.8,1.1-1.4,1.9-2
		c0.8-0.5,1.7-0.9,2.8-1.2c1.1-0.3,2.3-0.4,3.7-0.4h3.6v-1.9c0-1.3-0.4-2.3-1.2-3c-0.8-0.7-2-1.1-3.6-1.1c-0.7,0-1.4,0.1-2.1,0.3
		c-0.6,0.2-1.2,0.5-1.6,0.8c-0.4,0.3-0.8,0.7-1,1.2c-0.2,0.4-0.4,0.9-0.4,1.4v0.7l-2.3-0.1v-0.7c0-0.8,0.2-1.6,0.6-2.3
		c0.4-0.7,0.9-1.4,1.6-1.9c0.7-0.5,1.4-1,2.3-1.3c1.7-0.6,3.9-0.6,5.7-0.1c0.9,0.3,1.6,0.7,2.3,1.2c0.6,0.5,1.2,1.2,1.5,2
		c0.4,0.8,0.5,1.7,0.5,2.8v9c0,0.3,0,0.6,0,0.9c0,0.3,0,0.6,0.1,0.9c0,0.3,0.1,0.6,0.1,0.8C203.2,36.1,203.2,36.3,203.3,36.4z
		 M196.4,35.3c0.7-0.2,1.3-0.4,1.8-0.8c0.5-0.3,1-0.7,1.4-1.2c0.4-0.4,0.7-0.9,0.9-1.5v-3.4H197c-1.1,0-2.1,0.1-2.9,0.3
		c-0.8,0.2-1.6,0.5-2.1,0.9c-0.5,0.3-1,0.8-1.2,1.2c-0.3,0.5-0.4,1-0.4,1.5c0,0.4,0.1,0.8,0.3,1.2c0.2,0.4,0.4,0.7,0.8,1
		c0.3,0.3,0.8,0.5,1.2,0.7C193.7,35.7,195.3,35.6,196.4,35.3z M215.5,17.9c-0.2,0-0.5-0.1-0.8-0.1c-1.6,0-3,0.4-4.1,1.2
		c-0.4,0.3-0.7,0.6-1.1,1v-1.9h-2.3v19.3h2.3l0-12.3c0.1-0.7,0.3-1.4,0.6-2.1c0.3-0.6,0.6-1.1,1.1-1.6c0.4-0.4,0.9-0.8,1.5-1
		c0.7-0.3,1.6-0.4,2.5-0.3l1.2,0.2l0.3-2l-0.5-0.2C216,18,215.8,17.9,215.5,17.9z M219.2,28v0.3c0,1,0.2,2,0.5,2.9
		c0.3,0.9,0.8,1.7,1.3,2.3c0.6,0.6,1.2,1.2,2,1.5c1.2,0.6,2.5,0.7,3.8,0.4c0.4-0.1,0.8-0.2,1.2-0.3c0.4-0.2,0.8-0.4,1.1-0.7
		c0.4-0.3,0.7-0.6,1-1.1l0.4-0.5l1.8,1.2l-0.4,0.6c-0.3,0.5-0.7,0.9-1.1,1.3c-0.4,0.4-0.9,0.7-1.5,1c-0.5,0.3-1.1,0.5-1.8,0.7
		c-0.6,0.2-1.4,0.2-2.1,0.2c-1.2,0-2.3-0.2-3.4-0.7c-1-0.5-1.9-1.2-2.7-2c-0.8-0.9-1.4-1.9-1.8-3c-0.4-1.2-0.7-2.5-0.7-3.8v-0.7
		c0-1.4,0.2-2.7,0.6-3.8c0.4-1.2,1-2.2,1.7-3.1c0.7-0.9,1.6-1.5,2.6-2c2-0.9,4.4-1,6.3-0.1c0.9,0.4,1.7,1,2.4,1.7
		c0.7,0.7,1.2,1.6,1.5,2.7c0.4,1,0.5,2.1,0.5,3.4V28H219.2z M222.9,20.6c-0.7,0.3-1.3,0.8-1.8,1.3c-0.5,0.6-0.9,1.2-1.3,2
		c-0.2,0.5-0.4,1.1-0.5,1.7h11c0-0.6-0.2-1.3-0.4-1.8c-0.3-0.7-0.6-1.4-1.1-1.9c-0.4-0.5-1-1-1.6-1.3C226,20,224.2,20,222.9,20.6z"
		/>
	<path class="st0" d="M42.5,0H9.1C4.1,0,0,4.1,0,9.1v33.4c0,5,4.1,9.1,9.1,9.1h33.4c5,0,9.1-4.1,9.1-9.1V9.1C51.5,4.1,47.4,0,42.5,0
		z M37.1,37l-6.4,6.4c-0.2,0.2-2.1,2.1-4.9,2.1c0,0,0,0,0,0c-1.2,0-3-0.4-4.8-2.1l-9.5-9.5c-1-1-1-2.6,0-3.5c1-1,2.6-1,3.5,0
		l9.5,9.5c0.7,0.7,1.1,0.7,1.2,0.7c0.6,0,1.3-0.6,1.4-0.6l6.4-6.4c0.9-0.9,1-1.9,0.1-2.9l-9.5-9.5c-1-1-1-2.6,0-3.5c1-1,2.6-1,3.5,0
		l9.6,9.6C39.2,29.1,40.7,33.4,37.1,37z M40.4,21.2c-1,1-2.6,1-3.5,0l-9.5-9.5C26.7,11,26.2,11,26.1,11c-0.6,0-1.3,0.6-1.4,0.6
		L18.3,18c-0.9,0.9-1,1.9-0.1,2.9l9.5,9.5c1,1,1,2.6,0,3.5c-0.5,0.5-1.1,0.7-1.8,0.7c-0.6,0-1.3-0.2-1.8-0.7l-9.6-9.6
		c-1.9-2-3.4-6.2,0.2-9.8l6.4-6.4C21.3,7.9,23.3,6,26.1,6c0,0,0,0,0,0c1.2,0,3,0.4,4.8,2.1l9.5,9.5C41.4,18.6,41.4,20.2,40.4,21.2z"
		/>
</g>
</svg>
