<?xml version="1.0" encoding="utf-8"?>
<!-- Generator: Adobe Illustrator 20.0.0, SVG Export Plug-In . SVG Version: 6.00 Build 0)  -->
<svg version="1.1" id="Layer_1" xmlns="http://www.w3.org/2000/svg" xmlns:xlink="http://www.w3.org/1999/xlink" x="0px" y="0px"
	 viewBox="0 0 54.5 71" style="enable-background:new 0 0 54.5 71;" xml:space="preserve">
<style type="text/css">
	.st0{fill:#333333;}
</style>
<g>
	<path class="st0" d="M27.2,51.5c-1.1,0-2.3-0.4-3.2-1.3L6.8,32.9c-3.4-3.6-6.1-11.2,0.4-17.7L18.6,3.8C19,3.4,22.5,0,27.5,0
		c0,0,0,0,0.1,0c2.2,0,5.4,0.7,8.6,3.8L53.2,21c1.8,1.8,1.8,4.6,0,6.4c-1.8,1.8-4.6,1.8-6.4,0L29.7,10.2C28.6,9,27.8,9,27.5,9
		c-1.1,0-2.4,1-2.5,1.1L13.5,21.6c-1.7,1.7-1.8,3.4-0.2,5.2l17.1,17.1c1.8,1.8,1.8,4.6,0,6.4C29.5,51,28.3,51.5,27.2,51.5z"/>
	<path class="st0" d="M27,71c-2.2,0-5.4-0.7-8.6-3.8L1.3,50c-1.8-1.8-1.8-4.6,0-6.4c1.8-1.8,4.6-1.8,6.4,0l17.1,17.1
		C26,62,26.8,62,27,62c1.1,0,2.4-1,2.5-1.1L41,49.4c1.7-1.7,1.8-3.4,0.2-5.2L24.2,27.1c-1.8-1.8-1.8-4.6,0-6.4
		c1.8-1.8,4.6-1.8,6.4,0L47.8,38c3.4,3.6,6.1,11.2-0.4,17.7L35.9,67.2C35.6,67.5,32.1,70.9,27,71C27,71,27,71,27,71z M41.3,44.3
		L41.3,44.3L41.3,44.3z"/>
</g>
</svg>
