<?xml version="1.0" encoding="utf-8"?>
<!-- Generator: Adobe Illustrator 20.0.0, SVG Export Plug-In . SVG Version: 6.00 Build 0)  -->
<svg version="1.1" id="Layer_1" xmlns="http://www.w3.org/2000/svg" xmlns:xlink="http://www.w3.org/1999/xlink" x="0px" y="0px"
	 viewBox="0 0 46.1 46.1" style="enable-background:new 0 0 46.1 46.1;" xml:space="preserve">
<style type="text/css">
	.st0{fill:#FFFFFF;}
	.st1{fill:url(#SVGID_1_);}
</style>
<rect x="4.9" y="3.3" class="st0" width="36.4" height="39.8"/>
<linearGradient id="SVGID_1_" gradientUnits="userSpaceOnUse" x1="47.7019" y1="8.7849" x2="-1.6429" y2="37.2742">
	<stop  offset="0" style="stop-color:#08AAB0"/>
	<stop  offset="1" style="stop-color:#3FBDA4"/>
</linearGradient>
<path class="st1" d="M38,0H8.1C3.6,0,0,3.6,0,8.1V38c0,4.5,3.6,8.1,8.1,8.1H38c4.5,0,8.1-3.6,8.1-8.1V8.1C46.1,3.6,42.4,0,38,0z
	 M22.6,32l0,2.6l0,6L7.7,32l0-5.1l2.2,1.3l8.2,4.7l0-0.9L7.7,26l0-5.1l10.4,6l0-0.9l-8.2-4.7L7.7,20l0-5.1l14.9,8.6L22.6,32z
	 M8.2,14.1l4.4-2.6l4.4,2.6l6,3.5l0.8-0.4l-5.2-3l-5.2-3L23,5.5l12.7,7.3l2.2,1.3l-4.4,2.6L29,14.1l-6-3.5l-0.8,0.4l5.2,3l5.2,3
	l-9.6,5.6L8.2,14.1z M33.9,34.5l0-2.6l0-9.4L33.1,23l0,12l-4.4,2.6l0-12L27.9,26l0,9.4l0,2.6l-4.4,2.6l0-17.1l7.4-4.3l2.2-1.3l5.2-3
	l0,17.1L33.9,34.5z"/>
</svg>
