<?xml version="1.0" encoding="utf-8"?>
<!-- Generator: Adobe Illustrator 20.0.0, SVG Export Plug-In . SVG Version: 6.00 Build 0)  -->
<svg version="1.1" id="Layer_1" xmlns="http://www.w3.org/2000/svg" xmlns:xlink="http://www.w3.org/1999/xlink" x="0px" y="0px"
	 viewBox="0 0 21.3 24.3" style="enable-background:new 0 0 21.3 24.3;" xml:space="preserve">
<style type="text/css">
	.st0{fill:#FFFFFF;}
</style>
<g>
	<polygon class="st0" points="13.7,6 10.1,3.9 10.6,3.6 14.8,6 17.9,7.7 20.9,6 19.4,5.1 10.6,0 4,3.9 7.6,6 11.2,8 10.7,8.3 6.5,6 
		3.4,4.2 0.4,6 10.7,11.9 17.3,8 	"/>
	<polygon class="st0" points="0,6.5 0,10 1.6,10.9 7.3,14.2 7.2,14.8 0,10.6 0,14.2 7.2,18.4 7.2,19 1.5,15.7 0,14.8 0,18.3 
		10.3,24.3 10.3,20.1 10.3,20.1 10.3,18.4 10.3,12.4 	"/>
	<polygon class="st0" points="21.2,6.5 17.6,8.6 17.6,8.6 16.1,9.5 10.9,12.4 11,24.3 14.1,22.5 14,20.7 14,14.2 14.6,13.9 
		14.6,22.2 17.7,20.4 17.6,12.1 18.2,11.8 18.2,18.3 18.2,20.1 21.3,18.3 	"/>
</g>
</svg>
