<?xml version="1.0" encoding="utf-8"?>
<!-- Generator: Adobe Illustrator 20.0.0, SVG Export Plug-In . SVG Version: 6.00 Build 0)  -->
<svg version="1.1" id="Layer_1" xmlns="http://www.w3.org/2000/svg" xmlns:xlink="http://www.w3.org/1999/xlink" x="0px" y="0px"
	 viewBox="0 0 46.9 53.5" style="enable-background:new 0 0 46.9 53.5;" xml:space="preserve">
<style type="text/css">
	.st0{enable-background:new    ;}
	.st1{fill:#D22028;}
	.st2{fill:#4DAF4F;}
	.st3{fill:#2CA8E0;}
</style>
<g>
	<g class="st0">
		<g>
			<polyline class="st1" points="46.1,13.1 42.7,11.2 23.4,0 8.7,8.5 16.7,13.1 24.6,17.7 23.5,18.4 14.3,13.1 7.6,9.2 0.8,13.1 
				23.5,26.2 38.2,17.7 30.2,13.1 22.2,8.5 23.4,7.8 32.6,13.1 39.3,17 46.1,13.1 			"/>
		</g>
	</g>
</g>
<polygon class="st2" points="22.8,36.6 22.8,27.4 0.1,14.3 0.1,22.1 3.4,24 16,31.3 16,32.6 0,23.4 0,31.2 16,40.4 15.9,41.8 
	3.4,34.6 0,32.6 0,40.4 22.7,53.5 22.7,40.5 22.8,36.6 "/>
<polygon class="st3" points="46.8,14.3 38.9,18.9 38.9,18.9 32.1,22.8 32.1,22.8 24.1,27.4 24.2,53.5 31,49.6 31,45.7 30.9,31.3 
	32.1,30.6 32.1,48.9 38.9,45 38.9,26.7 40.1,26 40.1,40.4 40.1,44.3 46.9,40.4 "/>
</svg>
