<?xml version="1.0" encoding="utf-8"?><!-- Generator: Adobe Illustrator 16.0.0, SVG Export Plug-In . SVG Version: 6.00 Build 0) --><!DOCTYPE svg PUBLIC "-//W3C//DTD SVG 1.1//EN" "http://www.w3.org/Graphics/SVG/1.1/DTD/svg11.dtd"><svg version="1.1" id="Layer_1" xmlns="http://www.w3.org/2000/svg" xmlns:xlink="http://www.w3.org/1999/xlink" x="0px" y="0px" width="498.152px" height="149.23px" viewBox="1.464 25.444 498.152 149.23" enable-background="new 1.464 25.444 498.152 149.23" xml:space="preserve"><title>background</title><title>Layer 1</title><g><g><path fill="#443642" d="M178.463,83.987c0-14.818,10.804-25.165,30.438-25.165c11.98,0,21.783,3.825,27.094,7.572	c0.76,0.535,2.116,1.833,1.303,4.247c-1.042,2.6-2.953,6.51-4.324,9.05c-0.798,1.48-2.836,1.285-3.88,0.756	c-3.783-1.917-9.988-5.16-15.688-5.758c-1.399-0.147-2.869-0.227-4.347-0.188c-5.02,0.112-9.214,1.855-10.691,5.685	c-0.297,0.762-0.457,1.523-0.477,2.274c-0.138,5.047,6.886,6.872,15.395,8.334c15.819,2.71,27.787,7.348,27.787,23.63	c0,13.827-10.989,26.323-32.52,25.94c-14.194-0.287-24.264-5.083-29.66-9.737c-0.184-0.158-2.238-2.25-1.137-4.766	c1.26-3.239,3.387-6.951,5.056-8.922c0.928-1.266,3.377-1.467,4.65-0.678c4.448,2.764,11.768,7.196,20.206,7.49	c0.666,0.023,1.326,0.027,1.974,0.01c7.59-0.184,12.182-3.062,12.086-7.91c-0.082-4.271-6.1-6.766-15.683-8.572	c-15.284-2.879-27.58-7.917-27.58-23.292"/><path fill="#443642" d="M317.316,105.086c-10.778,0.141-20.66,3.087-20.945,11.51c-0.003,6.684,5.419,9.967,13.029,9.537	c7.3-0.703,12.867-3.869,15.32-8.07c0.907-1.557,1.045-7.383,0.99-9.873c-0.014-0.53-1.062-1.533-1.521-1.726	c-2.29-0.965-3.985-1.263-6.874-1.38 M281.453,71.146c5.04-4.51,15.033-11.53,30.959-11.16c21.017,0.437,32.12,10.29,33.154,33.86	c0.426,9.72-0.28,36.832-0.448,43.587c-0.025,0.969-0.353,1.639-1.659,1.664c-3.461,0.139-11.457,0.084-15.131,0.036	c-1.854-0.09-2.069-1.01-2.093-1.973c-0.016-0.63-0.07-2.498-0.109-4.021c-0.021-0.808-0.78-0.785-0.974-0.578	c-4.93,5.264-13.004,7.806-21.59,7.806c-13.05,0-26.06-7.677-26.02-22.88c0.04-15.57,11.08-23.25,23.208-25.061	c7.766-1.156,16.52-0.128,23.149,2.506c0.424,0.17,1.29-0.076,1.297-0.677c0.027-1.984-0.069-5.765-0.45-7.557	c-0.973-4.566-4.782-8.24-12.784-9.23c-1.648-0.203-3.307-0.27-4.968-0.138c-6.361,0.5-14.016,5.46-17.186,7.317	c-0.746,0.436-1.914,0.117-2.292-0.37c-1.85-2.39-6.5-9.38-6.866-10.497c-0.366-1.114,0.15-2.052,0.801-2.638L281.453,71.146z"/><path fill="#443642" d="M352.496,100.13c-0.125-21.715,15.005-40.034,39.573-40.195c15.33-0.1,26.467,6.85,28.431,10.128	c0.399,0.77,0.194,1.413-0.082,2.188c-1.298,2.74-4.576,8.034-6.912,11.034c-0.995,1.278-2.075,0.183-3.33-0.652	c-3.483-2.32-10.101-5.157-16.614-5.157c-11.816,0.002-20.615,8.104-20.517,23.01c0.092,14.304,8.52,22.165,20.558,22.45	c6.293,0.158,12.39-3.459,15.67-6.422c1.03-0.899,2.096-0.449,3.273,0.471c2.31,2.361,5.623,6.006,7.46,8.515	c1.203,1.394,0.303,2.758-0.13,3.306c-4.984,6.307-14.61,11.615-27.349,11.687c-26.674,0.187-39.906-18.568-40.029-40.36"/><path fill="#443642" d="M479.823,139.514c1.252-0.094,14.613-1.938,18.714-2.877c1.018-0.232,1.38-1.088,0.811-1.936	c-2.29-3.434-8.311-13.186-14.617-21.916c-5.8-8.027-11.913-15.087-13.89-17.803c-0.482-0.66-0.456-1.31,0.069-1.822	c3.761-3.68,19.493-19.105,25.408-25.475c2.29-2.478,0.915-3.544-1.03-4.123c-3.757-1.12-9.834-2.516-13.29-3.245	c-1.457-0.308-3.212-0.2-4.486,1.11c-5.914,5.515-23.963,23.63-29.351,29.045c-0.97,0.977-1.535,0.76-1.54-0.636	c-0.044-10.44-0.25-55.138-0.623-62.49c-0.026-0.972-1.195-1.71-1.854-1.745c-3.388-0.177-11.947-0.228-15.32-0.03	c-0.945,0.107-1.848,1.07-1.93,1.884c-0.778,11.756,0.33,98.054,0.792,110.126c0.033,0.873,0.683,1.55,1.512,1.599	c3.365,0.195,11.688,0.182,15.574,0.109c1.912,0,2.146-1.344,2.146-1.344l0.288-23.157c0,0,0.197-1.03,0.516-1.37	c1.37-1.475,5.16-5.537,6.776-7.107c0.388-0.377,1-0.35,1.396,0.183c1.92,2.59,7.395,11.01,12.47,18.53	c4.663,6.908,9.016,13.039,9.32,13.472c0.702,1,1.522,1.04,2.14,1.021V139.514z"/><path fill="#443642" d="M252.59,139.434c1.175,0.039,10.09,0.029,14.04,0.024c1.33,0.026,2.021-0.981,2.065-1.87	c0.839-16.926,0.48-97.512-0.05-110.237c-0.044-1.1-0.515-1.513-1.266-1.613c-3.39-0.454-13.024-0.348-16.112,0.46	c-0.604,0.157-0.96,0.616-0.979,1.206c-0.756,32.8-0.246,108.42-0.086,109.852c0.159,1.434,0.909,2.128,2.39,2.178H252.59z"/><g><g><path fill="#70CADB" d="M13.997,105.78c-5.494,0.042-10.148-3.232-11.864-8.342c-0.066-0.198-0.123-0.39-0.178-0.583	c-1.87-6.544,1.756-13.39,8.255-15.582L114.45,46.35c1.267-0.363,2.543-0.548,3.807-0.556c5.64-0.044,10.422,3.302,12.18,8.52	l0.156,0.504c1.95,6.816-2.895,12.9-8.7,14.85c-0.004,0.003-1.06,0.36-103.662,35.391	C16.844,105.53,15.421,105.768,13.997,105.78L13.997,105.78z"/></g><g><path fill="#E01765" d="M31.372,157.045c-5.537,0.04-10.207-3.188-11.903-8.225c-0.064-0.192-0.125-0.385-0.18-0.579	c-1.896-6.622,1.726-13.54,8.247-15.735L131.78,97.263c1.347-0.45,2.738-0.68,4.137-0.693c5.552-0.042,10.43,3.35,12.151,8.444	l0.16,0.53c1.007,3.521,0.412,7.478-1.59,10.601c-1.492,2.322-6.198,4.366-6.198,4.366L35.8,156.29	c-1.458,0.487-2.945,0.744-4.428,0.757V157.045z"/></g><g><path fill="#E8A723" d="M118.148,157.268c-5.56,0.043-10.483-3.465-12.255-8.723l-34.79-103.34l-0.174-0.58	c-1.885-6.59,1.74-13.464,8.237-15.654c1.3-0.437,2.644-0.665,3.997-0.677c2.01-0.015,3.955,0.438,5.787,1.343	c3.063,1.525,5.354,4.15,6.449,7.392l34.787,103.331l0.101,0.332c1.954,6.842-1.663,13.72-8.16,15.91	C120.84,157.031,119.5,157.256,118.148,157.268L118.148,157.268z"/></g><g><path fill="#3EB890" d="M66.435,174.674c-5.56,0.043-10.487-3.465-12.26-8.73L19.394,62.608c-0.06-0.19-0.12-0.38-0.178-0.575	c-1.88-6.588,1.734-13.463,8.229-15.655c1.295-0.43,2.634-0.657,3.985-0.668c5.561-0.044,10.485,3.463,12.257,8.723	l34.782,103.34c0.065,0.18,0.124,0.379,0.177,0.569c1.884,6.593-1.732,13.472-8.237,15.664	c-1.292,0.431-2.629,0.656-3.978,0.667H66.435z"/></g><path fill="#CC2027" d="M100.997,133.996l24.258-8.294l-7.93-23.55l-24.286,8.207L100.997,133.996z"/><path fill="#361238" d="M49.364,151.65l24.256-8.293l-7.99-23.73l-24.28,8.21L49.364,151.65z"/><path fill="#65863A" d="M83.727,82.7l24.26-8.283l-7.837-23.275l-24.305,8.143L83.727,82.7z"/><path fill="#1A937D" d="M32.088,100.33l24.26-8.283l-7.933-23.572L24.11,76.617L32.088,100.33L32.088,100.33z"/></g></g></g></svg>