<?xml version="1.0" encoding="iso-8859-1"?><!-- Generator: Adobe Illustrator 16.0.0, SVG Export Plug-In . SVG Version: 6.00 Build 0) --><!DOCTYPE svg PUBLIC "-//W3C//DTD SVG 1.1//EN" "http://www.w3.org/Graphics/SVG/1.1/DTD/svg11.dtd"><svg version="1.1" id="Layer_1" xmlns="http://www.w3.org/2000/svg" xmlns:xlink="http://www.w3.org/1999/xlink" x="0px" y="0px" width="331.271px" height="46.466px" viewBox="4.364 4.651 331.271 46.466" style="enable-background:new 4.364 4.651 331.271 46.466;" xml:space="preserve"><path style="fill:#10111C;" d="M47.741,4.761v26.537c0,9.081-4.381,14.448-17.538,14.448c-13.195,0-17.599-5.367-17.599-14.448	V12.644c-0.169-4.422-3.794-7.975-8.24-7.975V9.82c1.611,0,2.893,1.252,3.045,2.824v20.468c0,10.521,8.252,17.997,22.793,17.997	c14.519,0,22.738-7.478,22.738-17.997V4.761H47.741z"/><path style="fill:#10111C;" d="M198.803,44.995V32.562c0-1.707,1.451-3.109,3.133-3.143h22.654v-5.239h-22.732	c-1.1,0.032-2.113,0.252-3.055,0.658V9.864h36.973V4.651h-42.225v45.556h43.762v-5.212H198.803z"/><path style="fill:#10111C;" d="M292.529,27.469c-1.1,0-2.139,0.225-3.1,0.616l-0.045-18.518l28.545-0.011	c4.955,0,8.961,3.994,8.961,8.955c0,4.955-4.006,8.974-8.961,8.974L292.529,27.469z M332.445,45.312	c-1.254,1.006-3.039,0.804-4.127-0.352l-9.965-12.652c7.441-0.229,13.397-6.327,13.397-13.809c0-7.658-6.203-13.849-13.851-13.849	h-33.729v45.557h5.211l0.051-14.843c0.057-1.654,1.455-3.032,3.147-3.032l19.185,0.005l12.463,15.827	c2.869,3.39,7.906,3.955,11.406,1.204L332.445,45.312z"/><path style="fill:#10111C;" d="M133.661,45.312l-28.76-0.025V32.365c0.021-1.725,1.453-3.192,3.165-3.192l25.596-0.006	c4.46,0,8.059,3.61,8.059,8.048C141.72,41.703,138.121,45.312,133.661,45.312 M104.901,9.567L133.793,9.6	c4.048,0,7.323,3.285,7.323,7.34c0,4.032-3.274,7.312-7.323,7.312h-26.161c-0.954,0.065-1.893,0.285-2.731,0.647V9.567z M141.171,26.667c2.934-2.234,4.856-5.756,4.856-9.749c0-6.752-5.483-12.251-12.251-12.251L99.693,4.651v45.556h33.968	c7.164,0,12.964-5.812,12.964-12.992C146.625,32.864,144.466,29.023,141.171,26.667"/></svg>