<?xml version="1.0" encoding="iso-8859-1"?><!-- Generator: Adobe Illustrator 16.0.0, SVG Export Plug-In . SVG Version: 6.00 Build 0) --><!DOCTYPE svg PUBLIC "-//W3C//DTD SVG 1.1//EN" "http://www.w3.org/Graphics/SVG/1.1/DTD/svg11.dtd"><svg version="1.1" id="svg2" xmlns:svg="http://www.w3.org/2000/svg" xmlns="http://www.w3.org/2000/svg" xmlns:xlink="http://www.w3.org/1999/xlink" x="0px" y="0px" width="289.678px" height="111.478px" viewBox="11 10.344 289.678 111.478" style="enable-background:new 11 10.344 289.678 111.478;" xml:space="preserve"><path style="fill:#00B488;" d="M137.66,120.78c-2.11-0.561-5.31-2.5-7.12-4.311c-5.22-5.22-6.71-10.899-7.29-27.812	c-0.57-16.928,0.54-15.69-10.51-11.704c-3.17,1.144-8.52,2.368-11.89,2.72c-5.431,0.567-6.305,0.971-7.736,3.566	c-6.775,12.285-17.502,25.869-26.733,33.859c-3.638,3.15-5.282,3.9-8.558,3.9c-11.728,0-28.84-23.387-38.306-52.354	C15.811,57.307,11,35.525,11,30.085v-3.163l8.708,0.289l8.707,0.289l0.661,3.5c0.364,1.925,1.444,7.775,2.401,13	c2.32,12.663,7.553,28.697,12.543,38.434C48.993,92.136,56.619,103,58.457,103c2.404,0,16.297-18.5,18.057-24.044	c0.431-1.358-1.233-3.64-6.314-8.651C60.605,60.842,58.56,55.533,58.525,40c-0.024-11.025,0.103-11.727,3.068-17	c5.426-9.649,16.695-14.498,27.909-12.011c7.536,1.671,11.868,5.015,15.128,11.693c2.52,5.145,2.82,6.778,2.7,14.801	c-0.08,4.959-0.76,11.042-1.52,13.517c-1.38,4.485-1.41,4.501-6.407,4.796c-3.876,0.228-5.62-0.179-7.666-1.788	c-2.622-2.063-2.643-2.182-2.074-11.796c0.53-8.962,0.405-9.924-1.617-12.462c-2.749-3.451-7.817-3.766-10.626-0.662	c-2.736,3.024-3.259,15.426-0.91,21.579c2.193,5.739,6.634,10.83,11.895,13.631c3.243,1.727,5.76,2.176,12.095,2.156	c9.08-0.027,16.25-2.666,22.73-8.354c3.39-2.977,4.08-3.178,9.96-2.899l6.31,0.299l0.61,21.5c0.34,11.825,1.11,22.714,1.71,24.2	c1.5,3.71,5.33,6.05,8.56,5.239c8.03-2.01,14.45-18.686,16.44-42.709l0.68-8.23h7h7l0.301,5.25c0.35,6.001,1.739,6.714,4.869,2.489	c1.12-1.52,4.46-4.078,7.41-5.688c9.939-5.405,21.29-3.573,26.59,4.29c3.21,4.761,4.33,11.656,4.33,26.652	c0,12.627,0.141,13.557,2.35,16.137c2.221,2.57,2.551,2.66,5.541,1.41c4.27-1.76,7.149-7.051,11.479-21.087	c6.67-21.588,16.479-30.384,33.76-30.282c11.44,0.067,19.261,5.451,21.8,15.017c3.9,14.657-7.709,25.975-28.709,28.002	c-3.461,0.332-6.57,1.063-6.91,1.621c-0.92,1.489,4.1,5.43,8.439,6.64c5.529,1.53,11.061,1.229,17.25-0.95	c8.279-2.91,8.13-3.01,7.79,5.22l-0.29,7.22l-5,1.91c-3.54,1.351-7.62,1.92-14,1.94c-11.83,0.04-18.87-2.57-25.891-9.58l-5.01-5.01	l-2.549,3.38c-6.131,8.13-11.311,11.279-18.58,11.32c-7.42,0.039-12.33-2.881-15.721-9.36c-2.59-4.96-2.75-6.04-2.77-18.404	c-0.041-20.313-1.631-24.282-9.33-23.294c-5.721,0.734-10.021,5.424-12.93,14.1C185.16,86.124,184.43,94.7,184.1,103.5l-0.6,16h-8	h-8l-0.301-6.25c-0.159-3.439-0.699-6.25-1.189-6.25s-2.26,1.91-3.949,4.25c-3.69,5.109-8.611,8.62-13.76,9.82	C143.75,122.13,142.65,122.1,137.66,120.78z M275.721,85.367c4.469-1.6,9.279-6.379,9.279-9.221c0-2.81-2.811-5.946-5.949-6.636	c-4.341-0.954-11.221,2.412-13.951,6.826c-2.56,4.151-4.289,9.54-3.479,10.853C262.33,88.35,270.25,87.325,275.721,85.367z M125.31,42.587c-2.51-2.16-2.81-3.063-2.81-8.587s0.3-6.427,2.81-8.587c3.14-2.701,8.81-3.225,13.22-1.218	c4.84,2.206,6.9,9.58,4.28,15.333C140.22,45.205,130.35,46.929,125.31,42.587z"/></svg>