<?xml version="1.0" encoding="iso-8859-1"?><!-- Generator: Adobe Illustrator 16.0.0, SVG Export Plug-In . SVG Version: 6.00 Build 0) --><!DOCTYPE svg PUBLIC "-//W3C//DTD SVG 1.1//EN" "http://www.w3.org/Graphics/SVG/1.1/DTD/svg11.dtd"><svg version="1.1" id="svg2" xmlns:rdf="http://www.w3.org/1999/02/22-rdf-syntax-ns#" xmlns:dc="http://purl.org/dc/elements/1.1/" xmlns:svg="http://www.w3.org/2000/svg" xmlns:cc="http://creativecommons.org/ns#" xmlns="http://www.w3.org/2000/svg" xmlns:xlink="http://www.w3.org/1999/xlink" x="0px" y="0px" width="500.612px" height="208.352px" viewBox="0 0 500.612 208.352" style="enable-background:new 0 0 500.612 208.352;" xml:space="preserve"><g id="layer1" transform="translate(-157.48096,-338.30612)"><g id="g2996" transform="translate(1.0101525,-79.296975)"><path id="path2998" style="fill:#010101;" d="M240.214,586.479c-4.007-1.375-6.746-3.239-10.091-6.863	c-7.023-7.611-7.409-9.883-7.409-43.682c0-32.567,0.499-35.634,7.044-43.281c9.175-10.718,30.39-10.401,39.449,0.589	c6.018,7.3,6.507,10.55,6.507,43.192c0,25.834-0.224,30.141-1.801,34.66c-2.415,6.922-9.534,13.619-16.757,15.764	C250.344,588.881,246.989,588.807,240.214,586.479L240.214,586.479z M252.669,570.813c4.09-1.569,4.545-5.006,4.545-34.282	c0-18.682-0.376-28.828-1.13-30.482c-2.53-5.554-11.21-5.554-13.74,0c-0.754,1.654-1.13,11.8-1.13,30.482	c0,32.665,0.417,34.56,7.668,34.825C250.075,571.399,251.779,571.154,252.669,570.813z M297.096,585.931	c-1.44-0.782-3.466-3.128-4.5-5.21c-1.745-3.512-1.903-7.104-2.179-49.537l-0.297-45.75h9.547h9.547v41.877	c0,35.843,0.214,42.057,1.487,43.112c2.216,1.839,5.816,0.493,9.887-3.697l3.626-3.733v-38.779v-38.779h9.5h9.5v50.5v50.5h-9.5	h-9.5v-5.085v-5.085l-4.75,4.217c-2.612,2.319-6.198,4.832-7.968,5.585C307.37,587.82,300.453,587.754,297.096,585.931z M181.201,558.684l-0.015-27.75l-12.357-39.5l-12.357-39.5l10.04-0.287c5.877-0.168,10.293,0.124,10.651,0.704	c0.337,0.545,3.524,12.035,7.082,25.533c3.559,13.498,6.698,24.544,6.977,24.546c0.279,0.002,2.902-9.108,5.828-20.246	c2.927-11.137,5.992-22.612,6.813-25.5l1.493-5.25h10.536c8.584,0,10.438,0.258,10.003,1.39	c-0.293,0.764-5.967,18.745-12.607,39.957l-12.073,38.567v27.543v27.543h-10h-10L181.201,558.684L181.201,558.684z"/><path id="path3000" style="fill:#D02726;" d="M441.344,625.386c-48.855-1.631-62.084-5.108-71.078-18.688	c-3.634-5.486-7.713-17.764-9.012-27.128c-4.561-32.866-3.441-101.399,2.041-125.021c4.964-21.391,16.637-31.87,37.931-34.053	c20.918-2.145,75.448-3.313,128.488-2.753c57.262,0.604,84.221,1.829,93.975,4.27c19.079,4.773,28.336,18.828,31.563,47.921	c0.61,5.5,1.36,24.701,1.666,42.669c1.234,72.535-4.223,95.61-25.02,105.799c-7.853,3.848-12.991,4.732-35.185,6.057	C572.607,625.897,474.232,626.484,441.344,625.386L441.344,625.386z M465.378,585.85c1.686-0.873,5.038-3.404,7.45-5.629	l4.386-4.041v5.127v5.127h9.5h9.5v-50v-50h-9.5h-9.5v38.131v38.133l-4.368,4.367c-4.688,4.689-6.584,5.274-9.061,2.798	c-1.377-1.378-1.571-6.626-1.571-42.5v-40.929h-9.5h-9.5v43.318c0,47.787,0.393,51.568,5.768,55.58	C452.385,587.871,460.946,588.141,465.378,585.85z M556.828,585.527c1.745-1.064,4.163-4.029,5.5-6.746	c2.346-4.764,2.393-5.42,2.722-37.828c0.36-35.532-0.212-41.948-4.386-49.15c-2.319-4.002-7.849-7.37-12.104-7.37	c-4.098,0-9.971,2.757-14.447,6.782l-4.898,4.403v-21.592v-21.593h-9h-9v67v67h9h9v-4.616v-4.616l4.105,3.709	c2.258,2.039,5.521,4.324,7.25,5.076C545.213,588.008,553.127,587.784,556.828,585.527L556.828,585.527z M532.964,569.215	l-3.75-2.174v-30.665v-30.665l4.438-2.354c3.601-1.91,4.968-2.167,7.25-1.366c4.931,1.732,5.462,5.552,5.119,36.78l-0.307,27.838	l-2.806,2.412C539.473,571.975,537.785,572.008,532.964,569.215L532.964,569.215z M617.214,585.35	c9.664-4.381,14.016-11.789,14.777-25.158l0.5-8.758h-9.639h-9.639v5.936c0,7.27-1.127,10.446-4.487,12.648	c-3.787,2.48-8.494,0.904-10.761-3.605c-1.368-2.721-1.749-6.037-1.75-15.229l-0.002-11.75h18h18V524.75	c0-18.48-1.445-24.37-7.676-31.3c-5.506-6.123-11.405-8.561-20.324-8.397c-7.393,0.135-12.333,1.978-17.522,6.534	c-8.481,7.447-9.766,14.082-9.259,47.847c0.329,21.939,0.693,27.284,2.117,31.057c2.432,6.442,6.825,11.347,12.858,14.354	C599.206,588.231,610.356,588.459,617.214,585.35L617.214,585.35z M596.214,516.901c0-12.439,3.191-16.683,11.221-14.919	c4.031,0.886,5.779,5.398,5.779,14.919v7.532h-8.5h-8.5V516.901z M424.214,528.934v-57.5h11h11v-9.5v-9.5h-31.5h-31.5v9.5v9.5	h10.5h10.5v57.5v57.5h10h10V528.934z"/></g></g></svg>